<svg width="320" height="280" viewBox="0 0 320 280" fill="none" xmlns="http://www.w3.org/2000/svg">
<g clip-path="url(#clip0_5512_1708)">
<path d="M253.442 163.15C253.358 163.153 253.276 163.124 253.212 163.07C253.174 163.04 253.142 163.003 253.118 162.96C253.095 162.918 253.08 162.871 253.074 162.823C253.069 162.774 253.073 162.725 253.086 162.679C253.099 162.632 253.122 162.588 253.152 162.55C260.292 153.44 259.632 143.11 258.802 130.04C258.512 125.48 258.212 120.76 258.182 115.56C258.132 106.56 261.702 92.0101 265.182 77.9201C269.502 60.2801 273.962 42.0301 270.182 38.0301C263.472 30.8901 240.692 39.2001 228.562 47.8301C218.622 54.9101 210.772 53.5301 196.512 51.0101C192.782 50.3501 188.512 49.6101 183.732 48.9301C164.732 46.2401 162.672 49.2201 159.812 53.3401C159.262 54.1301 158.682 54.9501 157.962 55.8001C157.928 55.8355 157.886 55.8636 157.841 55.8828C157.795 55.902 157.746 55.9119 157.697 55.9119C157.648 55.9119 157.599 55.902 157.553 55.8828C157.508 55.8636 157.466 55.8355 157.432 55.8001C157.365 55.728 157.328 55.6334 157.328 55.5351C157.328 55.4369 157.365 55.3422 157.432 55.2701C158.076 54.5038 158.676 53.7025 159.232 52.8701C162.232 48.5301 164.422 45.3901 183.882 48.1401C188.702 48.8301 192.942 49.5701 196.682 50.2301C210.742 52.7101 218.482 54.0801 228.172 47.1801C240.802 38.1801 263.682 29.9401 270.772 37.4801C274.772 41.7701 270.492 59.4001 265.922 78.0601C262.492 92.0601 258.922 106.62 258.982 115.52C258.982 120.7 259.312 125.4 259.602 129.95C260.442 143.19 261.102 153.64 253.792 162.95C253.757 163.012 253.707 163.064 253.645 163.099C253.583 163.134 253.513 163.152 253.442 163.15Z" fill="#263238"/>
<path d="M159.078 82.8012C162.589 79.2904 162.589 73.5983 159.078 70.0874C155.568 66.5766 149.876 66.5766 146.365 70.0874C142.854 73.5983 142.854 79.2904 146.365 82.8012C149.876 86.312 155.568 86.312 159.078 82.8012Z" fill="white"/>
<path opacity="0.3" d="M159.078 82.8012C162.589 79.2904 162.589 73.5983 159.078 70.0874C155.568 66.5766 149.876 66.5766 146.365 70.0874C142.854 73.5983 142.854 79.2904 146.365 82.8012C149.876 86.312 155.568 86.312 159.078 82.8012Z" fill="#FF826C"/>
<path d="M158.66 54.6306C157.709 51.8146 155.726 49.464 153.11 48.0531C150.494 46.6422 147.44 46.276 144.565 47.0285C141.689 47.781 139.206 49.596 137.617 52.1075C136.027 54.619 135.45 57.6399 136 60.5606L140.76 84.3906L166.21 77.7506L158.66 54.6306Z" fill="#FF826C"/>
<path d="M163 56.6705C163 57.9897 162.609 59.2793 161.876 60.3762C161.143 61.473 160.101 62.3279 158.883 62.8328C157.664 63.3376 156.323 63.4697 155.029 63.2123C153.735 62.955 152.547 62.3197 151.614 61.3869C150.681 60.4541 150.046 59.2656 149.788 57.9717C149.531 56.6779 149.663 55.3368 150.168 54.118C150.673 52.8992 151.528 51.8575 152.625 51.1246C153.721 50.3917 155.011 50.0005 156.33 50.0005C157.206 49.9992 158.074 50.1708 158.884 50.5055C159.694 50.8403 160.43 51.3315 161.049 51.9512C161.669 52.5708 162.16 53.3066 162.495 54.1164C162.83 54.9263 163.001 55.7942 163 56.6705Z" fill="#263238"/>
<path d="M156.329 62.5403C155.166 62.5403 154.029 62.1952 153.061 61.5486C152.094 60.9021 151.341 59.9832 150.896 58.9081C150.451 57.8331 150.335 56.6503 150.563 55.5095C150.791 54.3686 151.352 53.3209 152.175 52.4989C152.998 51.677 154.047 51.1178 155.188 50.892C156.329 50.6663 157.512 50.7842 158.586 51.2307C159.661 51.6773 160.578 52.4325 161.223 53.4008C161.868 54.3691 162.211 55.5069 162.209 56.6703C162.209 57.442 162.057 58.2061 161.761 58.9189C161.466 59.6318 161.033 60.2793 160.486 60.8245C159.94 61.3697 159.292 61.8019 158.579 62.0963C157.865 62.3907 157.101 62.5416 156.329 62.5403ZM156.329 51.7903C155.364 51.7903 154.421 52.0765 153.618 52.6127C152.816 53.1489 152.19 53.9111 151.821 54.8028C151.451 55.6945 151.355 56.6757 151.543 57.6223C151.731 58.5689 152.196 59.4385 152.879 60.121C153.561 60.8034 154.431 61.2682 155.377 61.4565C156.324 61.6448 157.305 61.5482 158.197 61.1788C159.088 60.8094 159.851 60.184 160.387 59.3815C160.923 58.5789 161.209 57.6354 161.209 56.6703C161.209 55.376 160.695 54.1348 159.78 53.2196C158.865 52.3044 157.623 51.7903 156.329 51.7903Z" fill="#FF826C"/>
<path d="M156.332 57.6705C156.091 57.6732 155.857 57.5887 155.673 57.4325C155.489 57.2763 155.368 57.059 155.332 56.8205C155.312 56.6905 155.318 56.5578 155.349 56.4301C155.381 56.3024 155.437 56.1821 155.515 56.0762C155.593 55.9703 155.691 55.8809 155.804 55.813C155.917 55.745 156.042 55.7 156.172 55.6805L292.722 34.7905C292.987 34.7507 293.257 34.8179 293.473 34.9773C293.688 35.1367 293.832 35.3753 293.872 35.6405C293.912 35.9057 293.844 36.1759 293.685 36.3915C293.526 36.6072 293.287 36.7507 293.022 36.7905L156.482 57.6505L156.332 57.6705Z" fill="#263238"/>
<path d="M236.881 292.69H236.741C236.61 292.673 236.484 292.63 236.369 292.564C236.255 292.498 236.155 292.41 236.075 292.305C235.995 292.199 235.937 292.08 235.904 291.952C235.87 291.824 235.862 291.691 235.881 291.56L273.071 16.3204C273.108 16.0598 273.246 15.8245 273.456 15.6653C273.666 15.5062 273.93 15.4362 274.191 15.4704C274.453 15.5053 274.691 15.6427 274.852 15.8527C275.013 16.0626 275.085 16.3279 275.051 16.5904L237.871 291.82C237.839 292.061 237.721 292.282 237.539 292.442C237.357 292.602 237.123 292.69 236.881 292.69Z" fill="#263238"/>
<path d="M275.058 39.1303C275.058 39.9333 274.819 40.7183 274.373 41.3859C273.927 42.0536 273.293 42.574 272.551 42.8813C271.809 43.1885 270.993 43.2689 270.205 43.1123C269.418 42.9556 268.694 42.569 268.127 42.0012C267.559 41.4334 267.172 40.7099 267.016 39.9224C266.859 39.1348 266.939 38.3185 267.247 37.5766C267.554 36.8347 268.074 36.2007 268.742 35.7545C269.41 35.3084 270.195 35.0703 270.998 35.0703C272.074 35.0703 273.107 35.498 273.868 36.2594C274.63 37.0208 275.058 38.0535 275.058 39.1303Z" fill="#263238"/>
<path d="M34.1228 299.18L285.883 299.18V247.14L34.1228 247.14V299.18Z" fill="#FF826C"/>
<path opacity="0.1" d="M34.1228 299.18L285.883 299.18V247.14L34.1228 247.14V299.18Z" fill="white"/>
<path d="M34.1233 224.26H285.883L289.703 185.15C290.225 179.808 289.623 174.416 287.936 169.32C286.25 164.225 283.515 159.538 279.909 155.563C276.303 151.587 271.904 148.41 266.997 146.236C262.089 144.063 256.781 142.94 251.413 142.94H68.5933C63.2258 142.94 57.9176 144.063 53.01 146.236C48.1025 148.41 43.7041 151.587 40.0978 155.563C36.4915 159.538 33.757 164.225 32.0702 169.32C30.3834 174.416 29.7815 179.808 30.3033 185.15L34.1233 224.26Z" fill="#FF826C"/>
<path opacity="0.3" d="M34.1233 224.26H285.883L289.703 185.15C290.225 179.808 289.623 174.416 287.936 169.32C286.25 164.225 283.515 159.538 279.909 155.563C276.303 151.587 271.904 148.41 266.997 146.236C262.089 144.063 256.781 142.94 251.413 142.94H68.5933C63.2258 142.94 57.9176 144.063 53.01 146.236C48.1025 148.41 43.7041 151.587 40.0978 155.563C36.4915 159.538 33.757 164.225 32.0702 169.32C30.3834 174.416 29.7815 179.808 30.3033 185.15L34.1233 224.26Z" fill="black"/>
<path opacity="0.9" d="M34.1228 250.09L285.883 250.09V247.14L34.1228 247.14V250.09Z" fill="#FF826C"/>
<path d="M34.1228 247.14L285.883 247.14V219.67L34.1228 219.67V247.14Z" fill="#FF826C"/>
<path opacity="0.2" d="M34.1228 247.14L285.883 247.14V219.67L34.1228 219.67V247.14Z" fill="black"/>
<path d="M289.403 176.77C285.909 176.77 282.452 177.486 279.245 178.872C276.038 180.259 273.149 182.287 270.755 184.833C268.362 187.378 266.515 190.386 265.328 193.672C264.14 196.958 263.639 200.453 263.853 203.94L268.853 285.83C268.998 288.24 270.058 290.503 271.817 292.157C273.575 293.812 275.899 294.732 278.313 294.73H300.433C302.847 294.73 305.171 293.809 306.93 292.155C308.69 290.502 309.753 288.24 309.903 285.83L314.903 203.94C315.117 200.457 314.617 196.967 313.432 193.684C312.248 190.401 310.406 187.395 308.018 184.851C305.629 182.306 302.746 180.277 299.545 178.887C296.344 177.498 292.893 176.777 289.403 176.77Z" fill="#FF826C"/>
<path opacity="0.1" d="M308.04 211.665C312.363 201.381 307.53 189.539 297.246 185.216C286.962 180.893 275.12 185.725 270.797 196.01C266.473 206.294 271.306 218.136 281.59 222.459C291.875 226.782 303.717 221.95 308.04 211.665Z" fill="white"/>
<path d="M30.6021 176.77C27.1082 176.77 23.6513 177.486 20.4443 178.872C17.2373 180.259 14.3481 182.287 11.9545 184.833C9.561 187.378 7.71383 190.386 6.52675 193.672C5.33967 196.958 4.83782 200.453 5.0521 203.94L10.0521 285.83C10.2022 288.24 11.2652 290.502 13.0246 292.155C14.7841 293.809 17.1076 294.73 19.5221 294.73H41.6421C44.0563 294.732 46.38 293.812 48.1383 292.157C49.8966 290.503 50.9568 288.24 51.1021 285.83L56.1021 203.94C56.3161 200.457 55.8157 196.967 54.6317 193.684C53.4477 190.401 51.605 187.395 49.2168 184.851C46.8286 182.306 43.9454 180.277 40.7443 178.887C37.5432 177.498 34.0918 176.777 30.6021 176.77Z" fill="#FF826C"/>
<path opacity="0.1" d="M49.2195 211.654C53.5427 201.369 48.7101 189.527 38.4257 185.204C28.1412 180.881 16.2994 185.714 11.9763 195.998C7.65307 206.282 12.4856 218.124 22.7701 222.447C33.0545 226.771 44.8963 221.938 49.2195 211.654Z" fill="white"/>
<path d="M90.0023 117.94C91.3523 118.78 92.9324 119.72 94.4124 120.6C95.8924 121.48 97.4124 122.38 98.9724 123.24C102.022 124.98 105.112 126.62 108.212 128.24C111.312 129.86 114.442 131.24 117.582 132.53C120.611 133.785 123.726 134.821 126.902 135.63L125.662 135.51C128.482 135.61 131.712 135.58 134.872 135.51L144.472 135.26C150.902 135.1 157.392 134.93 163.872 134.99L164.772 142.22C161.592 143.05 158.402 143.75 155.202 144.42C152.002 145.09 148.802 145.7 145.582 146.27C142.362 146.84 139.112 147.36 135.842 147.79C132.572 148.22 129.312 148.64 125.662 148.79H125.252L124.412 148.65C120.434 147.988 116.519 146.984 112.712 145.65C109.048 144.398 105.45 142.96 101.932 141.34C98.4323 139.76 95.0524 138.01 91.7224 136.18C90.0724 135.26 88.4224 134.32 86.8024 133.33C85.1824 132.34 83.6123 131.33 81.9023 130.21L90.0023 117.94Z" fill="#FFC3BD"/>
<path d="M77.0006 120.34C75.4106 113.9 84.1807 113.45 109.461 125.15L103.901 145.43C103.901 145.43 81.8306 140 77.0006 120.34Z" fill="#FF826C"/>
<path opacity="0.2" d="M87.1512 126.35C85.0212 126.35 82.9813 127.85 81.2812 129.96C87.8612 139.68 98.8013 143.85 102.571 145.04H102.701L102.981 145.11C99.1112 131.88 93.0012 126.45 87.1512 126.35Z" fill="black"/>
<path d="M188.043 215.1L198.423 213.46L195.693 186.99L185.312 188.63L188.043 215.1Z" fill="#FFC3BD"/>
<path d="M198.89 207.5L186.51 207.68C186.295 207.691 186.091 207.779 185.935 207.928C185.779 208.076 185.681 208.276 185.66 208.49L184.07 218.8C184.03 219.04 184.042 219.286 184.104 219.521C184.166 219.756 184.277 219.976 184.43 220.165C184.583 220.354 184.775 220.508 184.992 220.618C185.209 220.727 185.447 220.789 185.69 220.8C189.77 220.66 194.1 220.35 199.24 220.28C202.4 220.23 210.19 220.46 214.56 220.4C218.93 220.34 219.28 215.52 217.47 215.11C209.36 213.28 203.3 210.68 200.61 208.11C200.137 207.692 199.521 207.473 198.89 207.5Z" fill="#263238"/>
<path d="M112.22 185C112.22 185 150.22 141.22 170.11 145.44C192.92 150.29 202 198.77 202 198.77L184.34 200.77C184.34 200.77 175.11 179.09 164.58 171.15C143 206 87.79 231.76 81 195.8C90.07 192.15 112.22 185 112.22 185Z" fill="#263238"/>
<path d="M203.71 199.08L181.68 203.39L180.02 196.12L203 191.15L203.71 199.08Z" fill="#263238"/>
<path d="M161.471 135.19L169.971 133.56L173.521 143.69C173.521 143.69 165.021 146.51 160.891 141.16L161.471 135.19Z" fill="#FFC3BD"/>
<path d="M179.779 135.6L181.969 142.94L173.519 143.69L169.969 133.56L179.779 135.6Z" fill="#FFC3BD"/>
<path d="M65.6917 198.4C65.6917 198.4 49.1317 174 41.0017 134.68C40.5573 132.489 40.5906 130.228 41.0994 128.05C41.6083 125.873 42.5807 123.831 43.9503 122.064C45.3199 120.297 47.0546 118.845 49.036 117.809C51.0173 116.773 53.1988 116.177 55.4317 116.06C63.4317 115.64 71.8717 115.53 78.7317 115.56C82.0828 115.572 85.3397 116.671 88.0124 118.692C90.685 120.714 92.6289 123.549 93.5517 126.77C97.2817 139.85 99.6317 156.98 114.252 181.3C116.602 185.2 113.722 190.25 109.252 191.01L65.6917 198.4Z" fill="#FF826C"/>
<path opacity="0.2" d="M40.7912 129.9C46.3812 122.1 51.3712 121 52.7912 121.44C65.7112 125.52 51.7912 161.12 49.6912 165.09C46.0445 155.146 43.1398 144.944 41.0012 134.57C40.6893 133.034 40.6185 131.459 40.7912 129.9Z" fill="black"/>
<path opacity="0.2" d="M105.89 201.44C105.54 202.71 106.53 206.84 112.55 211.52C120.72 209.29 129.55 204.85 137.86 198.96C125.67 195.52 108.34 192.59 105.89 201.44Z" fill="black"/>
<path d="M55.332 91C57.932 98.08 61.262 110.87 57.232 116C62.2029 120.313 68.6622 122.512 75.232 122.13C83.532 121.86 81.842 118.54 79.122 115.6C71.052 114.23 70.222 107.43 70.602 101.77L55.332 91Z" fill="#FFC3BD"/>
<path opacity="0.2" d="M61.5534 95.3701L70.5534 101.73C70.4433 103.061 70.4433 104.399 70.5534 105.73C67.4934 106.79 62.5034 103.97 61.6334 100.79C61.3392 98.9973 61.3122 97.1708 61.5534 95.3701Z" fill="black"/>
<path d="M72.0021 83.2201C73.6221 86.3201 76.6821 87.9101 78.8421 86.7901C81.0021 85.6701 81.4321 82.2401 79.8421 79.1401C78.2521 76.0401 75.1621 74.4501 73.0021 75.5801C70.8421 76.7101 70.3621 80.1301 72.0021 83.2201Z" fill="#FF826C"/>
<path d="M69.8813 84.3202C71.6013 87.6102 74.8813 89.3202 77.1513 88.1102C79.4213 86.9002 79.9013 83.2702 78.1513 79.9802C76.4013 76.6902 73.1513 74.9802 70.8813 76.1902C68.6113 77.4002 68.1613 81.0002 69.8813 84.3202Z" fill="white"/>
<path d="M72.4114 81.4801L76.5214 80.2802C76.5214 80.2802 73.7514 75.7702 73.9914 72.1002C74.2314 68.4302 74.9314 65.6102 67.7914 65.7702C60.6514 65.9302 56.6814 73.0001 72.4114 81.4801Z" fill="#263238"/>
<path d="M49.661 87.7402C54.661 96.0102 57.141 101.09 63.841 103.43C65.9801 104.237 68.2999 104.441 70.5469 104.019C72.7938 103.596 74.8815 102.564 76.5815 101.036C78.2816 99.507 79.5287 97.5403 80.1864 95.3507C80.8442 93.161 80.8872 90.8327 80.311 88.6202C78.191 80.1102 70.391 68.0102 60.061 68.5502C49.731 69.0902 44.681 79.4702 49.661 87.7402Z" fill="#FFC3BD"/>
<path d="M48.8326 79.9402C56.6526 78.7002 70.0726 74.0002 68.3426 64.6702C67.1726 58.4002 57.4026 60.3302 55.3426 63.5002C52.1365 67.8271 48.0845 71.4573 43.4326 74.1702C38.6726 76.8302 37.1626 81.8002 48.8326 79.9402Z" fill="#263238"/>
<path d="M52.723 94.2202L56.653 92.5202C56.653 92.5202 53.333 88.3902 53.113 84.7202C52.893 81.0502 53.223 78.1602 46.173 79.2202C39.123 80.2802 36.063 87.8302 52.723 94.2202Z" fill="#263238"/>
<path d="M51.6733 90.1302C51.6077 90.131 51.5427 90.1181 51.4824 90.0923C51.4221 90.0664 51.3679 90.0283 51.3233 89.9802C45.9533 84.7002 45.1233 79.5802 45.1133 76.9802C45.1133 74.5602 45.7733 72.3802 46.8633 71.2802C46.9098 71.2334 46.9651 71.1962 47.026 71.1708C47.0869 71.1454 47.1523 71.1323 47.2183 71.1323C47.2843 71.1323 47.3496 71.1454 47.4106 71.1708C47.4715 71.1962 47.5268 71.2334 47.5733 71.2802C47.6649 71.3737 47.7162 71.4994 47.7162 71.6302C47.7162 71.7611 47.6649 71.8868 47.5733 71.9802C46.4926 73.4128 45.9733 75.1912 46.1133 76.9802C46.1133 79.4002 46.9133 84.2202 52.0233 89.2502C52.0701 89.2967 52.1073 89.352 52.1327 89.4129C52.1581 89.4739 52.1712 89.5392 52.1712 89.6052C52.1712 89.6712 52.1581 89.7366 52.1327 89.7975C52.1073 89.8584 52.0701 89.9138 52.0233 89.9602C51.9805 90.0119 51.9271 90.0538 51.8667 90.0831C51.8063 90.1125 51.7404 90.1285 51.6733 90.1302Z" fill="#FF826C"/>
<path d="M49.8833 98.1604C51.7106 99.4014 53.941 99.9019 56.1233 99.5604C58.9833 99.0804 59.1233 96.3104 57.1233 94.3204C55.4033 92.5204 51.8333 90.6204 49.5033 92.1204C47.1733 93.6204 47.6433 96.6304 49.8833 98.1604Z" fill="#FFC3BD"/>
<path d="M56.53 91.8504C58.87 94.7404 59.14 98.4004 57.13 100.03C55.12 101.66 51.6 100.64 49.26 97.7504C46.92 94.8604 46.65 91.2104 48.66 89.5804C50.67 87.9504 54.2 89.0004 56.53 91.8504Z" fill="white"/>
<path d="M54.6922 93.3503C56.8922 96.0603 57.1422 99.5003 55.2522 101.03C53.3622 102.56 50.0522 101.61 47.8522 98.8903C45.6522 96.1703 45.4022 92.7403 47.2922 91.2103C49.1822 89.6803 52.4922 90.6303 54.6922 93.3503Z" fill="#FF826C"/>
<path d="M61.082 85.4004H60.332C60.469 84.4369 60.9612 83.5595 61.712 82.9404C61.9026 82.7625 62.1318 82.6311 62.3816 82.5565C62.6314 82.4819 62.8951 82.4661 63.152 82.5104C63.369 82.5645 63.5713 82.6661 63.7443 82.8079C63.9172 82.9497 64.0565 83.1282 64.152 83.3304L63.482 83.6804C63.4369 83.5743 63.3686 83.4797 63.2821 83.4035C63.1955 83.3274 63.093 83.2716 62.982 83.2404C62.8323 83.2238 62.6808 83.2413 62.5388 83.2916C62.3969 83.3418 62.2681 83.4234 62.162 83.5304C61.6013 84.0139 61.2206 84.673 61.082 85.4004Z" fill="#263238"/>
<path d="M69.8126 80.0803C69.7303 79.9105 69.6875 79.7241 69.6875 79.5354C69.6875 79.3466 69.7303 79.1602 69.8126 78.9904C69.9296 78.7864 70.0895 78.6102 70.2811 78.4738C70.4727 78.3374 70.6915 78.2442 70.9226 78.2003C71.3011 78.1001 71.6993 78.0999 72.0779 78.1998C72.4566 78.2997 72.8028 78.4963 73.0826 78.7704L72.5626 79.3103C72.3766 79.1237 72.1441 78.99 71.8892 78.9232C71.6343 78.8564 71.3662 78.8589 71.1126 78.9303C70.9849 78.9474 70.8624 78.9921 70.7536 79.0611C70.6448 79.1302 70.5524 79.222 70.4826 79.3303C70.4478 79.4038 70.4298 79.4841 70.4298 79.5653C70.4298 79.6466 70.4478 79.7269 70.4826 79.8003L69.8126 80.0803Z" fill="#263238"/>
<path d="M68.25 82.1104C68.25 82.1104 71.96 85.3703 74.75 86.4803C74.09 88.2103 71.68 88.6703 71.68 88.6703L68.25 82.1104Z" fill="#ED847E"/>
<path d="M69.6715 93.3601C67.9469 93.9076 66.0762 93.7568 64.4615 92.9401C64.4353 92.9256 64.4122 92.9059 64.3939 92.8822C64.3755 92.8586 64.3621 92.8314 64.3546 92.8023C64.3471 92.7733 64.3457 92.743 64.3503 92.7134C64.3549 92.6838 64.3656 92.6554 64.3815 92.6301C64.3968 92.6032 64.4175 92.5798 64.4424 92.5615C64.4673 92.5431 64.4957 92.5302 64.5259 92.5236C64.5561 92.517 64.5873 92.5169 64.6176 92.5231C64.6479 92.5294 64.6765 92.542 64.7015 92.5601C65.5945 92.987 66.5717 93.2087 67.5615 93.2087C68.5513 93.2087 69.5286 92.987 70.4215 92.5601C70.4775 92.5355 70.5407 92.5332 70.5983 92.5536C70.6559 92.574 70.7036 92.6157 70.7315 92.6701C70.7452 92.6962 70.7534 92.7249 70.7557 92.7543C70.7581 92.7837 70.7545 92.8133 70.7451 92.8413C70.7358 92.8693 70.7209 92.8951 70.7014 92.9172C70.6819 92.9393 70.6581 92.9573 70.6315 92.9701C70.3214 93.1232 70.0006 93.2535 69.6715 93.3601Z" fill="#263238"/>
<path d="M57.2843 83.6301C57.205 83.645 57.1236 83.645 57.0443 83.6301C56.9835 83.6205 56.9252 83.5987 56.8729 83.5661C56.8207 83.5336 56.7755 83.4908 56.7401 83.4405C56.7046 83.3901 56.6796 83.3331 56.6666 83.273C56.6536 83.2128 56.6528 83.1506 56.6643 83.0901C56.7835 82.3837 57.0762 81.718 57.516 81.1525C57.9558 80.587 58.529 80.1395 59.1843 79.8501C59.3001 79.8055 59.4285 79.8065 59.5436 79.8529C59.6586 79.8993 59.7518 79.9877 59.8043 80.1001C59.8285 80.155 59.8412 80.2143 59.8416 80.2743C59.842 80.3344 59.8302 80.3938 59.8067 80.4491C59.7833 80.5044 59.7489 80.5542 59.7054 80.5957C59.662 80.6371 59.6106 80.6693 59.5543 80.6901C59.0331 80.9233 58.5777 81.2818 58.2288 81.7337C57.8798 82.1856 57.6481 82.7169 57.5543 83.2801C57.5432 83.3567 57.5125 83.4292 57.4652 83.4905C57.4179 83.5518 57.3556 83.5999 57.2843 83.6301Z" fill="#263238"/>
<path d="M73.0528 76.2503C72.9846 76.2846 72.9092 76.3025 72.8328 76.3025C72.7564 76.3025 72.6811 76.2846 72.6128 76.2503C72.0975 75.9664 71.5241 75.8044 70.9364 75.7766C70.3487 75.7489 69.7625 75.8562 69.2228 76.0903C69.1135 76.1487 68.9859 76.1626 68.8666 76.1291C68.7473 76.0955 68.6456 76.0171 68.5828 75.9103C68.551 75.8604 68.5299 75.8044 68.5208 75.7459C68.5116 75.6874 68.5147 75.6277 68.5297 75.5704C68.5447 75.5131 68.5714 75.4596 68.6081 75.4131C68.6447 75.3666 68.6906 75.3282 68.7428 75.3003C69.4197 74.9946 70.158 74.849 70.9004 74.875C71.6427 74.901 72.369 75.0979 73.0228 75.4503C73.0782 75.4748 73.1279 75.5105 73.1689 75.5551C73.2099 75.5997 73.2412 75.6522 73.2609 75.7095C73.2806 75.7668 73.2883 75.8275 73.2835 75.8879C73.2786 75.9482 73.2614 76.0069 73.2328 76.0603C73.1952 76.1416 73.132 76.2084 73.0528 76.2503Z" fill="#263238"/>
<path d="M185.493 303.17L194.373 297.77L181.833 273.96L172.953 279.36L185.493 303.17Z" fill="#FFC3BD"/>
<path d="M104.211 191.87C104.211 191.87 123.531 194.53 151.671 213C171.161 225.8 188.171 278.33 188.171 278.33L172.931 288.74C172.931 288.74 153.561 246.57 137.341 231C84.0414 218.31 68.3414 234.9 65.6914 198.41C75.1114 195.79 104.211 191.87 104.211 191.87Z" fill="#263238"/>
<path d="M191.831 280.64L171.761 290.71L168.211 284.15L189.021 273.2L191.831 280.64Z" fill="#263238"/>
<path d="M54.3215 133.83C52.3715 140.14 50.3215 146.65 48.6115 153.02C47.7315 156.21 46.9315 159.41 46.2515 162.52C45.9315 164.07 45.6415 165.61 45.4415 167.06C45.2408 168.3 45.1372 169.554 45.1315 170.81C45.1315 171.03 45.1315 171.16 45.1315 171.22C45.1315 171.28 45.1315 171.22 45.1315 171.17C45.1315 171.08 45.0415 170.95 44.9815 170.84C44.9215 170.73 44.7715 170.46 44.6815 170.33C44.3215 169.85 44.2415 169.87 44.2515 169.89C44.3621 170.007 44.4825 170.114 44.6115 170.21C45.7156 170.975 46.8832 171.645 48.1015 172.21C50.8715 173.55 53.9415 174.84 57.0415 176.04C63.2515 178.48 69.7115 180.74 76.0415 183.13L74.4415 190.24C67.4584 189.513 60.5281 188.348 53.6915 186.75C50.1505 185.951 46.6581 184.949 43.2315 183.75C41.2564 183.067 39.3483 182.203 37.5315 181.17C36.9357 180.807 36.3614 180.41 35.8115 179.98C34.971 179.323 34.2329 178.545 33.6215 177.67C33.3918 177.331 33.1847 176.977 33.0015 176.61C32.9015 176.4 32.8015 176.18 32.7215 175.98L32.5915 175.64C32.4115 175.17 32.3015 174.77 32.1815 174.36C32.0067 173.659 31.8764 172.948 31.7915 172.23C31.5474 170.062 31.5206 167.874 31.7115 165.7C31.8615 163.7 32.1015 161.89 32.3715 160.07C32.9215 156.42 33.6715 152.93 34.4715 149.47C36.1022 142.606 38.0848 135.831 40.4115 129.17L54.3215 133.83Z" fill="#FFC3BD"/>
<path d="M51.8108 116.69C49.8108 117.23 40.7408 118.59 34.3008 140.76L56.0908 149.26C56.0908 149.26 71.1808 111.51 51.8108 116.69Z" fill="#FF826C"/>
<path d="M75.7907 182.9L83.4407 186.71L76.4407 195.16C76.4407 195.16 68.4407 190.02 69.9007 185.67L72.8007 183.25C73.2123 182.91 73.7135 182.696 74.244 182.634C74.7745 182.571 75.3116 182.664 75.7907 182.9Z" fill="#FFC3BD"/>
<path d="M90.3524 194.4L82.7124 200.64L76.4023 195.16L83.4424 186.71L90.3524 194.4Z" fill="#FFC3BD"/>
</g>
<defs>
<clipPath id="clip0_5512_1708">
<rect width="320" height="280" fill="white"/>
</clipPath>
</defs>
</svg>
