<svg width="320" height="260" viewBox="0 0 320 260" fill="none" xmlns="http://www.w3.org/2000/svg">
<g clip-path="url(#clip0_5512_1706)">
<path d="M20.3737 119.376L19.4883 119.407L19.7713 127.314L20.6567 127.282L20.3737 119.376Z" fill="#7465CE"/>
<path d="M19.1276 84.7623L18.2422 84.7939L19.1585 110.392L20.0439 110.36L19.1276 84.7623Z" fill="#7465CE"/>
<path d="M41.948 336.682H181.936C183.414 336.689 184.877 336.397 186.239 335.823C187.6 335.249 188.831 334.404 189.857 333.341C190.883 332.278 191.683 331.018 192.208 329.637C192.733 328.256 192.973 326.782 192.914 325.306L183.079 50.1676C182.943 47.123 181.646 44.2461 179.454 42.1285C177.262 40.0109 174.343 38.8135 171.295 38.7825H31.3071C29.8262 38.7717 28.3585 39.0616 26.9929 39.6348C25.6273 40.2079 24.3922 41.0522 23.3626 42.1167C22.3329 43.1812 21.53 44.4436 21.0026 45.8274C20.4752 47.2113 20.2341 48.6879 20.2941 50.1676L30.1553 325.306C30.2934 328.351 31.5928 331.227 33.7862 333.343C35.9796 335.459 38.9004 336.654 41.948 336.682Z" fill="#7465CE"/>
<path opacity="0.8" d="M44.4746 336.682H181.964C183.442 336.689 184.905 336.397 186.267 335.823C187.628 335.248 188.859 334.404 189.885 333.341C190.911 332.278 191.711 331.017 192.236 329.636C192.762 328.255 193.002 326.782 192.942 325.306L183.08 50.1675C182.945 47.1228 181.648 44.2459 179.456 42.1283C177.264 40.0107 174.344 38.8133 171.297 38.7824H33.8072C32.3289 38.7751 30.8644 39.0677 29.5024 39.6425C28.1404 40.2174 26.9091 41.0624 25.883 42.1267C24.8569 43.1909 24.0572 44.4521 23.5324 45.8342C23.0076 47.2162 22.7685 48.6904 22.8297 50.1675L32.682 325.306C32.8243 328.349 34.125 331.222 36.3175 333.338C38.51 335.453 41.4284 336.649 44.4746 336.682Z" fill="white"/>
<path d="M46.9194 319.653H179.19C180.569 319.661 181.936 319.388 183.206 318.851C184.476 318.314 185.624 317.524 186.579 316.529C187.535 315.535 188.278 314.357 188.764 313.066C189.25 311.775 189.468 310.399 189.406 309.021L180.245 52.9231C180.12 50.0837 178.913 47.3997 176.872 45.4224C174.83 43.4451 172.109 42.3246 169.267 42.2911H36.9873C35.6086 42.285 34.243 42.5589 32.9733 43.0964C31.7036 43.6339 30.5564 44.4237 29.6011 45.4179C28.6458 46.4121 27.9025 47.59 27.4161 48.8801C26.9298 50.1702 26.7105 51.5457 26.7718 52.9231L35.9507 309.057C36.0774 311.891 37.285 314.568 39.3251 316.539C41.3652 318.51 44.0829 319.625 46.9194 319.653Z" fill="white"/>
<path d="M166.065 121.996H45.8963C43.5055 121.975 41.2134 121.039 39.4926 119.379C37.7717 117.719 36.753 115.462 36.6465 113.074L34.7062 58.9214C34.6595 57.7595 34.8486 56.6001 35.2621 55.5133C35.6757 54.4265 36.305 53.4346 37.1122 52.5976C37.9194 51.7606 38.8878 51.0957 39.959 50.6431C41.0301 50.1904 42.1818 49.9594 43.3447 49.9639H163.469C165.859 49.9844 168.15 50.9212 169.869 52.5813C171.588 54.2415 172.605 56.4982 172.71 58.886L174.65 113.038C174.698 114.196 174.511 115.351 174.101 116.435C173.691 117.519 173.067 118.509 172.265 119.346C171.463 120.182 170.501 120.848 169.435 121.303C168.37 121.759 167.223 121.994 166.065 121.996ZM43.3447 50.8499C42.3012 50.8455 41.2677 51.0525 40.3064 51.4584C39.3451 51.8643 38.4761 52.4607 37.7516 53.2117C37.0271 53.9627 36.4623 54.8526 36.0911 55.8278C35.72 56.803 35.5503 57.8433 35.5922 58.886L37.5325 113.038C37.6277 115.199 38.5483 117.24 40.1045 118.742C41.6607 120.244 43.7338 121.091 45.8963 121.11H166.065C167.108 121.115 168.142 120.909 169.103 120.504C170.064 120.098 170.933 119.502 171.658 118.75C172.382 117.999 172.945 117.108 173.315 116.133C173.685 115.157 173.853 114.116 173.808 113.074L171.868 58.9214C171.773 56.7624 170.853 54.722 169.299 53.2205C167.745 51.7189 165.674 50.8705 163.513 50.8499H43.3447Z" fill="#7465CE"/>
<path d="M92.009 88.011C93.8781 86.0747 89.7455 79.0528 82.7784 72.3272C75.8114 65.6015 68.6482 61.7189 66.779 63.6552C64.9098 65.5915 69.0425 72.6134 76.0095 79.339C82.9766 86.0647 90.1398 89.9473 92.009 88.011Z" fill="#263238"/>
<path d="M76.0195 79.3531C69.0556 72.6284 64.918 65.6112 66.7874 63.6709L44.7349 86.5474C42.8654 88.4789 46.9942 95.5049 53.967 102.23C60.9398 108.954 68.0898 112.862 69.915 110.895L91.9764 88.027C90.1424 89.9585 82.9835 86.0778 76.0195 79.3531Z" fill="#7465CE"/>
<path opacity="0.6" d="M76.0195 79.3531C69.0556 72.6284 64.918 65.6112 66.7874 63.6709L44.7349 86.5474C42.8654 88.4789 46.9942 95.5049 53.967 102.23C60.9398 108.954 68.0898 112.862 69.915 110.895L91.9764 88.027C90.1424 89.9585 82.9835 86.0778 76.0195 79.3531Z" fill="white"/>
<path d="M107.523 80.4338C103.376 87.8939 96.9971 90.0646 89.6965 88.4078H89.6433C86.498 87.7698 81.2175 84.3499 76.0255 79.344C73.3707 76.8206 70.9944 74.0196 68.9375 70.989C69.1324 68.4107 72.6144 66.2755 75.6888 65.9742C79.7378 65.5667 84.9652 66.4084 90.0952 73.5141C96.244 82.0374 102.694 80.6021 103.624 77.4479C105.237 71.9193 111.262 73.7179 107.523 80.4338Z" fill="#7465CE"/>
<path d="M101.671 75.2062C101.91 72.8937 99.9436 71.9811 100.094 74.2138C100.245 76.4466 101.503 76.8719 101.671 75.2062Z" fill="#7465CE"/>
<path d="M106.344 86.3692C108.054 85.8642 108.028 84.2163 106.504 84.9694C104.98 85.7225 105.113 86.7236 106.344 86.3692Z" fill="#7465CE"/>
<path d="M134.683 70.0243C137.377 67.2802 137.258 62.7932 134.416 60.0024C131.574 57.2116 127.086 57.1738 124.391 59.918C121.696 62.6621 121.816 67.1491 124.657 69.9399C127.499 72.7307 131.988 72.7685 134.683 70.0243Z" fill="#7465CE"/>
<path opacity="0.8" d="M155.69 70.0446C158.385 67.3009 158.266 62.8139 155.425 60.0226C152.583 57.2313 148.095 57.1927 145.4 59.9364C142.704 62.6801 142.823 67.1671 145.664 69.9584C148.506 72.7497 152.994 72.7883 155.69 70.0446Z" fill="#7465CE"/>
<path opacity="0.6" d="M135.44 91.0126C138.135 88.2685 138.016 83.7815 135.174 80.9907C132.332 78.1999 127.844 78.1621 125.149 80.9062C122.454 83.6504 122.573 88.1374 125.415 90.9282C128.257 93.719 132.746 93.7568 135.44 91.0126Z" fill="#7465CE"/>
<path opacity="0.4" d="M156.433 91.0136C159.127 88.2694 159.008 83.7825 156.166 80.9917C153.324 78.2009 148.836 78.1631 146.141 80.9072C143.446 83.6514 143.566 88.1384 146.407 90.9292C149.249 93.72 153.738 93.7578 156.433 91.0136Z" fill="#7465CE"/>
<path opacity="0.2" d="M138.14 106.978C138.181 107.898 138.034 108.817 137.708 109.678C137.383 110.54 136.885 111.326 136.246 111.989C135.607 112.652 134.84 113.178 133.991 113.535C133.142 113.892 132.23 114.073 131.309 114.066C129.409 114.052 127.587 113.308 126.22 111.989C124.853 110.67 124.045 108.876 123.964 106.978C123.923 106.058 124.07 105.139 124.395 104.278C124.721 103.416 125.218 102.63 125.857 101.967C126.496 101.304 127.263 100.778 128.112 100.421C128.961 100.063 129.874 99.8829 130.795 99.8898C132.694 99.904 134.516 100.647 135.883 101.967C137.25 103.286 138.058 105.08 138.14 106.978Z" fill="#7465CE"/>
<path opacity="0.2" d="M151.795 100.776C153.46 100.788 155.058 101.437 156.259 102.591C157.461 103.744 158.174 105.314 158.254 106.978C158.294 107.782 158.169 108.586 157.887 109.34C157.605 110.094 157.172 110.782 156.614 111.363C156.057 111.944 155.387 112.404 154.645 112.717C153.903 113.029 153.105 113.187 152.3 113.18C150.636 113.166 149.04 112.515 147.841 111.362C146.641 110.209 145.929 108.64 145.85 106.978C145.807 106.174 145.93 105.37 146.211 104.615C146.491 103.861 146.923 103.171 147.48 102.59C148.037 102.009 148.707 101.548 149.45 101.236C150.192 100.924 150.99 100.767 151.795 100.776ZM151.795 99.8898C150.874 99.8829 149.961 100.063 149.112 100.421C148.263 100.778 147.496 101.304 146.857 101.967C146.218 102.63 145.721 103.416 145.395 104.278C145.07 105.139 144.923 106.058 144.964 106.978C145.043 108.875 145.849 110.669 147.215 111.988C148.58 113.308 150.401 114.052 152.3 114.066C153.221 114.073 154.133 113.892 154.982 113.535C155.831 113.178 156.598 112.652 157.238 111.989C157.877 111.326 158.374 110.54 158.7 109.678C159.025 108.817 159.172 107.898 159.131 106.978C159.053 105.08 158.248 103.285 156.882 101.965C155.516 100.645 153.694 99.9019 151.795 99.8898Z" fill="#7465CE"/>
<g opacity="0.06">
<path d="M175.15 195.117C175.411 195.119 175.668 195.068 175.908 194.967C176.148 194.865 176.364 194.717 176.545 194.53C176.725 194.342 176.866 194.121 176.958 193.877C177.051 193.634 177.093 193.375 177.082 193.115L174.929 132.38C174.902 131.844 174.671 131.338 174.285 130.966C173.898 130.594 173.384 130.384 172.847 130.377C172.587 130.377 172.33 130.429 172.091 130.531C171.852 130.632 171.636 130.781 171.455 130.968C171.275 131.155 171.134 131.376 171.042 131.619C170.949 131.861 170.906 132.12 170.915 132.38L173.095 193.115C173.117 193.648 173.343 194.152 173.725 194.525C174.107 194.897 174.617 195.109 175.15 195.117Z" fill="#7465CE"/>
<path d="M165.641 195.117C165.901 195.119 166.159 195.068 166.398 194.967C166.638 194.865 166.855 194.717 167.035 194.53C167.216 194.342 167.356 194.121 167.449 193.877C167.541 193.634 167.583 193.375 167.572 193.115L165.393 132.38C165.368 131.845 165.139 131.339 164.754 130.967C164.368 130.594 163.855 130.384 163.319 130.377C163.06 130.377 162.803 130.429 162.564 130.531C162.325 130.632 162.108 130.781 161.928 130.968C161.748 131.155 161.607 131.376 161.514 131.619C161.421 131.861 161.378 132.12 161.388 132.38L163.568 193.115C163.588 193.652 163.815 194.16 164.202 194.533C164.588 194.906 165.104 195.116 165.641 195.117Z" fill="#7465CE"/>
<path d="M156.133 195.117C156.393 195.119 156.651 195.068 156.891 194.967C157.13 194.865 157.347 194.717 157.528 194.53C157.708 194.342 157.849 194.121 157.941 193.877C158.034 193.634 158.076 193.375 158.065 193.115L155.885 132.38C155.86 131.845 155.632 131.339 155.246 130.967C154.861 130.594 154.348 130.384 153.812 130.377C153.552 130.376 153.294 130.427 153.055 130.528C152.815 130.629 152.598 130.778 152.418 130.965C152.237 131.152 152.096 131.374 152.004 131.617C151.912 131.861 151.87 132.12 151.881 132.38L154.051 193.115C154.076 193.652 154.306 194.159 154.693 194.531C155.081 194.904 155.596 195.114 156.133 195.117Z" fill="#7465CE"/>
<path d="M146.629 195.117C146.89 195.119 147.147 195.068 147.387 194.967C147.627 194.865 147.843 194.717 148.024 194.53C148.204 194.342 148.345 194.121 148.437 193.877C148.53 193.634 148.572 193.375 148.561 193.115L146.381 132.38C146.357 131.845 146.128 131.339 145.743 130.967C145.357 130.594 144.844 130.384 144.308 130.377C144.048 130.376 143.79 130.427 143.551 130.528C143.311 130.629 143.094 130.778 142.914 130.965C142.733 131.152 142.593 131.374 142.5 131.617C142.408 131.861 142.366 132.12 142.377 132.38L144.547 193.115C144.572 193.652 144.802 194.159 145.189 194.531C145.577 194.904 146.092 195.114 146.629 195.117Z" fill="#7465CE"/>
<path d="M137.122 195.117C137.382 195.119 137.639 195.068 137.879 194.967C138.119 194.865 138.335 194.717 138.516 194.53C138.696 194.342 138.837 194.121 138.93 193.877C139.022 193.634 139.064 193.375 139.053 193.115L136.874 132.38C136.849 131.845 136.62 131.339 136.235 130.967C135.849 130.594 135.336 130.384 134.8 130.377C134.54 130.376 134.283 130.427 134.043 130.528C133.803 130.629 133.587 130.778 133.406 130.965C133.225 131.152 133.085 131.374 132.992 131.617C132.9 131.861 132.858 132.12 132.869 132.38L135.057 193.115C135.082 193.649 135.309 194.153 135.693 194.525C136.076 194.897 136.587 195.109 137.122 195.117Z" fill="#7465CE"/>
<path d="M127.605 195.117C127.865 195.12 128.124 195.07 128.364 194.969C128.604 194.869 128.821 194.72 129.002 194.532C129.183 194.345 129.324 194.123 129.415 193.879C129.507 193.635 129.549 193.375 129.536 193.115L127.366 132.38C127.341 131.845 127.112 131.339 126.727 130.967C126.342 130.594 125.828 130.384 125.293 130.377C125.032 130.376 124.775 130.427 124.535 130.528C124.295 130.629 124.079 130.778 123.898 130.965C123.718 131.152 123.577 131.374 123.485 131.617C123.392 131.861 123.35 132.12 123.361 132.38L125.532 193.115C125.557 193.65 125.785 194.156 126.171 194.528C126.556 194.9 127.069 195.111 127.605 195.117Z" fill="#7465CE"/>
<path d="M118.098 195.117C118.358 195.12 118.617 195.07 118.857 194.969C119.097 194.869 119.314 194.72 119.495 194.532C119.676 194.345 119.816 194.123 119.908 193.879C120 193.635 120.041 193.375 120.029 193.115L117.859 132.38C117.834 131.845 117.605 131.339 117.22 130.967C116.834 130.594 116.321 130.384 115.785 130.377C115.525 130.376 115.267 130.427 115.027 130.528C114.787 130.629 114.569 130.778 114.388 130.965C114.207 131.152 114.065 131.374 113.972 131.617C113.879 131.86 113.835 132.12 113.845 132.38L116.025 193.115C116.047 193.651 116.275 194.158 116.661 194.531C117.047 194.903 117.561 195.113 118.098 195.117Z" fill="#7465CE"/>
<path d="M108.594 195.117C108.854 195.12 109.113 195.07 109.353 194.969C109.593 194.868 109.81 194.72 109.991 194.532C110.172 194.345 110.313 194.123 110.404 193.879C110.496 193.635 110.537 193.375 110.525 193.115L108.355 132.38C108.328 131.844 108.097 131.338 107.71 130.966C107.324 130.594 106.809 130.384 106.273 130.377C106.013 130.377 105.756 130.429 105.517 130.531C105.278 130.632 105.061 130.781 104.881 130.968C104.701 131.155 104.56 131.376 104.467 131.619C104.375 131.861 104.332 132.12 104.341 132.38L106.521 193.115C106.543 193.651 106.771 194.158 107.157 194.531C107.543 194.903 108.057 195.113 108.594 195.117Z" fill="#7465CE"/>
<path d="M99.0861 195.117C99.3462 195.119 99.6039 195.068 99.8435 194.967C100.083 194.865 100.3 194.717 100.48 194.53C100.661 194.342 100.802 194.121 100.894 193.877C100.986 193.634 101.028 193.375 101.018 193.115L98.8469 132.38C98.8199 131.844 98.5895 131.338 98.2026 130.966C97.8157 130.594 97.3015 130.384 96.7648 130.377C96.5051 130.377 96.248 130.429 96.0089 130.531C95.7698 130.632 95.5537 130.781 95.3734 130.968C95.193 131.155 95.0523 131.376 94.9595 131.619C94.8667 131.861 94.8238 132.12 94.8333 132.38L97.0129 193.115C97.0356 193.651 97.2635 194.158 97.6494 194.531C98.0353 194.903 98.5496 195.113 99.0861 195.117Z" fill="#7465CE"/>
<path d="M89.5783 195.117C89.8384 195.119 90.0961 195.068 90.3357 194.967C90.5754 194.865 90.792 194.717 90.9726 194.53C91.1532 194.342 91.2939 194.121 91.3862 193.877C91.4786 193.634 91.5206 193.375 91.5098 193.115L89.3302 132.38C89.3075 131.844 89.0796 131.337 88.6938 130.964C88.3079 130.592 87.7935 130.382 87.257 130.377C86.9973 130.377 86.7402 130.429 86.5011 130.531C86.262 130.632 86.0459 130.781 85.8656 130.968C85.6852 131.155 85.5445 131.376 85.4517 131.619C85.3589 131.861 85.316 132.12 85.3255 132.38L87.5051 193.115C87.5278 193.651 87.7557 194.158 88.1416 194.531C88.5275 194.903 89.0418 195.113 89.5783 195.117Z" fill="#7465CE"/>
<path d="M80.0709 195.117C80.3309 195.119 80.5886 195.068 80.8283 194.967C81.0679 194.865 81.2846 194.717 81.4651 194.53C81.6457 194.342 81.7864 194.121 81.8788 193.877C81.9711 193.634 82.0131 193.375 82.0023 193.115L79.8228 132.38C79.798 131.845 79.5694 131.339 79.184 130.967C78.7985 130.594 78.2854 130.384 77.7495 130.377C77.4895 130.376 77.2318 130.427 76.9921 130.528C76.7525 130.629 76.5358 130.778 76.3553 130.965C76.1747 131.152 76.034 131.374 75.9417 131.617C75.8493 131.861 75.8073 132.12 75.8181 132.38L77.9976 193.115C78.0182 193.652 78.2454 194.16 78.6317 194.533C79.0181 194.906 79.5337 195.116 80.0709 195.117Z" fill="#7465CE"/>
<path d="M70.5631 195.117C70.8231 195.119 71.0808 195.068 71.3204 194.967C71.5601 194.865 71.7768 194.717 71.9573 194.53C72.1379 194.342 72.2786 194.121 72.3709 193.877C72.4633 193.634 72.5053 193.375 72.4945 193.115L70.315 132.38C70.2901 131.845 70.0616 131.339 69.6762 130.967C69.2907 130.594 68.7775 130.384 68.2417 130.377C67.9816 130.376 67.724 130.427 67.4843 130.528C67.2447 130.629 67.028 130.778 66.8474 130.965C66.6669 131.152 66.5262 131.374 66.4338 131.617C66.3415 131.861 66.2995 132.12 66.3102 132.38L68.4809 193.115C68.5059 193.652 68.7357 194.159 69.123 194.531C69.5103 194.904 70.0257 195.114 70.5631 195.117Z" fill="#7465CE"/>
<path d="M61.0591 195.117C61.3192 195.119 61.5769 195.068 61.8165 194.967C62.0562 194.865 62.2729 194.717 62.4534 194.53C62.634 194.342 62.7747 194.121 62.867 193.877C62.9594 193.634 63.0014 193.375 62.9906 193.115L60.8111 132.38C60.7862 131.845 60.5577 131.339 60.1723 130.967C59.7868 130.594 59.2736 130.384 58.7378 130.377C58.4777 130.376 58.2201 130.427 57.9804 130.528C57.7408 130.629 57.5241 130.778 57.3435 130.965C57.163 131.152 57.0223 131.374 56.9299 131.617C56.8376 131.861 56.7956 132.12 56.8063 132.38L58.977 193.115C59.002 193.652 59.2317 194.159 59.6191 194.531C60.0064 194.904 60.5218 195.114 61.0591 195.117Z" fill="#7465CE"/>
<path d="M51.5464 195.117C51.8072 195.12 52.0658 195.07 52.3065 194.969C52.5472 194.869 52.765 194.72 52.9465 194.533C53.128 194.346 53.2695 194.123 53.3624 193.88C53.4552 193.636 53.4976 193.376 53.4867 193.115L51.3072 132.38C51.2823 131.845 51.0538 131.339 50.6683 130.967C50.2829 130.594 49.7697 130.384 49.2339 130.377C48.9738 130.376 48.7162 130.427 48.4765 130.528C48.2369 130.629 48.0202 130.778 47.8396 130.965C47.6591 131.152 47.5184 131.374 47.426 131.617C47.3337 131.861 47.2916 132.12 47.3024 132.38L49.4731 193.115C49.498 193.65 49.7265 194.156 50.1119 194.528C50.4974 194.9 51.0106 195.111 51.5464 195.117Z" fill="#7465CE"/>
<path d="M42.0275 195.117C42.288 195.12 42.5462 195.07 42.7865 194.969C43.0267 194.869 43.2439 194.72 43.4247 194.532C43.6055 194.345 43.7462 194.123 43.8381 193.879C43.9299 193.635 43.9711 193.375 43.959 193.115L41.7883 132.38C41.7635 131.845 41.5349 131.339 41.1495 130.967C40.7641 130.594 40.2509 130.384 39.7151 130.377C39.4546 130.376 39.1966 130.427 38.9564 130.528C38.7163 130.629 38.4991 130.778 38.3178 130.965C38.1366 131.152 37.995 131.374 37.9017 131.617C37.8084 131.86 37.7652 132.12 37.7747 132.38L39.9543 193.115C39.977 193.651 40.2049 194.158 40.5908 194.531C40.9767 194.903 41.4911 195.113 42.0275 195.117Z" fill="#7465CE"/>
</g>
<path d="M86.3292 140.07H49.5602C49.4427 140.07 49.33 140.023 49.2469 139.94C49.1639 139.857 49.1172 139.745 49.1172 139.627C49.1172 139.51 49.1639 139.397 49.2469 139.314C49.33 139.231 49.4427 139.184 49.5602 139.184H86.3292C86.4467 139.184 86.5593 139.231 86.6424 139.314C86.7255 139.397 86.7722 139.51 86.7722 139.627C86.7722 139.745 86.7255 139.857 86.6424 139.94C86.5593 140.023 86.4467 140.07 86.3292 140.07Z" fill="#7465CE"/>
<path d="M165.323 187.152C133.639 187.152 112.951 172.807 94.6996 160.155C79.5047 149.612 66.3476 140.513 49.5579 140.513C49.3229 140.513 49.0975 140.419 48.9314 140.253C48.7652 140.087 48.6719 139.862 48.6719 139.627C48.6719 139.392 48.7652 139.166 48.9314 139C49.0975 138.834 49.3229 138.741 49.5579 138.741C66.9323 138.741 80.9134 148.434 95.7096 158.693C113.793 171.204 134.171 185.38 165.323 185.38C165.558 185.38 165.783 185.473 165.949 185.639C166.115 185.805 166.209 186.031 166.209 186.266C166.209 186.501 166.115 186.726 165.949 186.892C165.783 187.058 165.558 187.152 165.323 187.152Z" fill="#7465CE"/>
<path d="M165.321 186.709H108.271C108.154 186.709 108.041 186.663 107.958 186.579C107.875 186.496 107.828 186.384 107.828 186.266C107.828 186.149 107.875 186.036 107.958 185.953C108.041 185.87 108.154 185.823 108.271 185.823H165.321C165.438 185.823 165.551 185.87 165.634 185.953C165.717 186.036 165.764 186.149 165.764 186.266C165.764 186.384 165.717 186.496 165.634 186.579C165.551 186.663 165.438 186.709 165.321 186.709Z" fill="#7465CE"/>
<path d="M105.751 186.266C105.765 186.605 105.909 186.926 106.153 187.162C106.397 187.398 106.723 187.531 107.062 187.533C107.227 187.534 107.39 187.502 107.541 187.438C107.693 187.374 107.829 187.28 107.943 187.162C108.057 187.043 108.145 186.902 108.202 186.748C108.26 186.594 108.285 186.43 108.276 186.266C108.263 185.927 108.119 185.606 107.875 185.37C107.63 185.134 107.305 185.001 106.965 184.999C106.801 184.999 106.639 185.032 106.488 185.096C106.337 185.161 106.201 185.255 106.087 185.373C105.974 185.492 105.886 185.632 105.828 185.785C105.77 185.939 105.744 186.102 105.751 186.266Z" fill="white"/>
<path d="M107.058 187.976C106.601 187.977 106.162 187.801 105.832 187.486C105.502 187.17 105.306 186.74 105.286 186.284C105.269 186.056 105.299 185.828 105.375 185.613C105.45 185.398 105.57 185.201 105.725 185.034C105.881 184.868 106.07 184.735 106.279 184.645C106.489 184.555 106.715 184.51 106.943 184.512C107.399 184.511 107.838 184.687 108.168 185.002C108.498 185.318 108.694 185.748 108.715 186.204C108.726 186.428 108.691 186.651 108.612 186.861C108.534 187.071 108.413 187.263 108.258 187.424C108.103 187.586 107.917 187.715 107.71 187.802C107.504 187.889 107.282 187.933 107.058 187.932V187.976ZM106.96 185.442C106.856 185.442 106.753 185.463 106.657 185.504C106.561 185.545 106.475 185.605 106.403 185.68C106.33 185.756 106.274 185.845 106.238 185.942C106.201 186.04 106.185 186.144 106.19 186.248C106.201 186.476 106.299 186.69 106.464 186.846C106.629 187.003 106.848 187.09 107.076 187.09C107.272 187.076 107.456 186.987 107.59 186.842C107.663 186.768 107.72 186.679 107.756 186.581C107.793 186.483 107.808 186.379 107.802 186.275C107.789 186.057 107.696 185.851 107.541 185.697C107.386 185.544 107.179 185.453 106.96 185.442Z" fill="#7465CE"/>
<path d="M88.5074 140.532C88.9872 140.044 88.9656 139.244 88.4592 138.747C87.9528 138.25 87.1533 138.244 86.6735 138.733C86.1937 139.222 86.2152 140.021 86.7216 140.518C87.228 141.015 88.0275 141.021 88.5074 140.532Z" fill="white"/>
<path d="M87.6373 141.337C87.1808 141.337 86.7418 141.162 86.4117 140.846C86.0816 140.531 85.8858 140.101 85.8653 139.645C85.8542 139.42 85.8893 139.196 85.9686 138.985C86.0478 138.775 86.1695 138.583 86.326 138.422C86.4823 138.263 86.6685 138.137 86.8737 138.05C87.079 137.964 87.2993 137.918 87.5221 137.917C87.9786 137.917 88.4176 138.092 88.7477 138.407C89.0779 138.723 89.2736 139.153 89.2941 139.609C89.305 139.833 89.2701 140.057 89.1916 140.266C89.1131 140.476 88.9926 140.668 88.8375 140.83C88.6825 140.991 88.496 141.12 88.2897 141.207C88.0833 141.294 87.8613 141.338 87.6373 141.337ZM87.5398 138.803C87.4354 138.803 87.3321 138.824 87.2362 138.865C87.1402 138.906 87.0537 138.967 86.9817 139.042C86.9102 139.118 86.8546 139.207 86.818 139.304C86.7815 139.402 86.7649 139.505 86.769 139.609C86.7804 139.836 86.8787 140.051 87.0437 140.207C87.2086 140.364 87.4275 140.451 87.655 140.451C87.7594 140.451 87.8627 140.43 87.9587 140.389C88.0546 140.348 88.1412 140.287 88.2132 140.212C88.2864 140.137 88.3432 140.049 88.3798 139.951C88.4164 139.853 88.4321 139.749 88.4258 139.645C88.4145 139.417 88.3161 139.203 88.1512 139.047C87.9862 138.89 87.7673 138.803 87.5398 138.803Z" fill="#7465CE"/>
<path d="M161.293 186.266C161.338 187.345 161.797 188.366 162.574 189.116C163.35 189.866 164.386 190.289 165.466 190.298C165.99 190.302 166.509 190.199 166.992 189.996C167.475 189.793 167.912 189.494 168.276 189.117C168.64 188.74 168.923 188.293 169.109 187.803C169.294 187.313 169.378 186.79 169.355 186.266C169.31 185.187 168.851 184.167 168.075 183.417C167.298 182.666 166.262 182.243 165.182 182.235C164.658 182.231 164.139 182.333 163.656 182.536C163.173 182.739 162.736 183.038 162.372 183.416C162.008 183.793 161.725 184.24 161.539 184.73C161.354 185.22 161.27 185.743 161.293 186.266Z" fill="#263238"/>
<path d="M45.5701 139.627C45.6155 140.706 46.0741 141.726 46.8509 142.477C47.6276 143.227 48.6631 143.65 49.7431 143.658C50.2671 143.663 50.7865 143.56 51.2696 143.357C51.7527 143.154 52.1895 142.855 52.5534 142.478C52.9172 142.101 53.2005 141.653 53.3861 141.163C53.5716 140.673 53.6555 140.151 53.6327 139.627C53.5872 138.548 53.1287 137.528 52.3519 136.777C51.5751 136.027 50.5396 135.604 49.4596 135.596C48.9356 135.592 48.4163 135.694 47.9331 135.897C47.45 136.1 47.0132 136.399 46.6494 136.776C46.2856 137.154 46.0022 137.601 45.8167 138.091C45.6311 138.581 45.5472 139.104 45.5701 139.627Z" fill="#263238"/>
<path d="M175.959 218.561H42.8547C42.6198 218.561 42.3944 218.468 42.2283 218.302C42.0621 218.135 41.9688 217.91 41.9688 217.675C41.9688 217.44 42.0621 217.215 42.2283 217.049C42.3944 216.882 42.6198 216.789 42.8547 216.789H175.959C176.194 216.789 176.419 216.882 176.585 217.049C176.751 217.215 176.845 217.44 176.845 217.675C176.845 217.91 176.751 218.135 176.585 218.302C176.419 218.468 176.194 218.561 175.959 218.561Z" fill="#7465CE"/>
<path d="M176.974 247.019H43.8704C43.6354 247.019 43.41 246.926 43.2439 246.76C43.0777 246.593 42.9844 246.368 42.9844 246.133C42.9844 245.898 43.0777 245.673 43.2439 245.507C43.41 245.34 43.6354 245.247 43.8704 245.247H176.974C177.209 245.247 177.434 245.34 177.601 245.507C177.767 245.673 177.86 245.898 177.86 246.133C177.86 246.368 177.767 246.593 177.601 246.76C177.434 246.926 177.209 247.019 176.974 247.019Z" fill="#7465CE"/>
<path d="M143.031 222.238H152.157L151.838 213.112H142.703L143.031 222.238Z" fill="white"/>
<path d="M152.162 222.681H143.036C142.922 222.681 142.812 222.637 142.729 222.557C142.647 222.478 142.598 222.37 142.593 222.255L142.266 213.13C142.265 213.009 142.309 212.892 142.39 212.802C142.474 212.717 142.589 212.669 142.709 212.669H151.843C151.957 212.669 152.066 212.713 152.147 212.793C152.228 212.872 152.275 212.981 152.277 213.094L152.605 222.22C152.61 222.28 152.601 222.341 152.579 222.398C152.558 222.454 152.524 222.505 152.481 222.548C152.44 222.591 152.391 222.625 152.336 222.648C152.281 222.671 152.222 222.682 152.162 222.681ZM143.462 221.795H151.71L151.409 213.555H143.169L143.462 221.795Z" fill="#7465CE"/>
<path d="M58.4841 250.696H67.6099L67.2821 241.57H58.1562L58.4841 250.696Z" fill="white"/>
<path d="M67.6076 251.139H58.4818C58.3673 251.139 58.2572 251.095 58.1746 251.016C58.092 250.937 58.0433 250.828 58.0388 250.714L57.7109 241.588C57.7102 241.467 57.7544 241.351 57.835 241.26C57.9195 241.176 58.0342 241.128 58.1539 241.128H67.2797C67.3368 241.126 67.3935 241.136 67.4466 241.157C67.4997 241.178 67.5482 241.209 67.5894 241.248C67.6305 241.288 67.6635 241.335 67.6863 241.387C67.7092 241.44 67.7216 241.496 67.7227 241.553L68.0506 250.679C68.055 250.739 68.0461 250.8 68.0247 250.856C68.0033 250.913 67.9698 250.964 67.9265 251.006C67.8856 251.05 67.8361 251.084 67.7812 251.107C67.7262 251.13 67.6671 251.141 67.6076 251.139ZM58.9071 250.253H67.1557L66.8545 242.014H58.6147L58.9071 250.253Z" fill="#7465CE"/>
<path d="M228.421 77.1279L229.626 85.8816H174.694L173.489 77.1279H168.793L204.782 338.214H209.487L208.291 329.487H263.223L264.428 338.241H269.124L233.108 77.1279H228.421ZM230.131 89.5851L236.235 133.885H181.303L175.199 89.5851H230.131ZM194.549 229.812L188.444 185.512H243.376L249.481 229.812H194.549ZM249.977 233.507L256.082 277.807H201.15L195.045 233.507H249.977ZM187.957 181.835L181.853 137.535H236.785L242.889 181.835H187.957ZM207.777 325.766L201.672 281.466H256.604L262.709 325.766H207.777Z" fill="#263238"/>
<path d="M219.228 79.0506C219.288 78.3766 219.501 77.725 219.851 77.146C220.201 76.567 220.679 76.0759 221.249 75.7104C221.153 74.1676 220.566 72.696 219.574 71.5108L233.635 65.043C234.521 70.359 235.265 74.5498 238.331 76.8888C235.947 79.0595 231.562 82.9668 225.12 83.3743C218.679 83.7819 219.131 81.3276 219.228 79.0506Z" fill="#FFB573"/>
<path d="M213.914 58.4609L215.021 63.6706C215.021 63.6706 213.125 64.5566 211.77 63.901C211.983 61.928 212.723 60.0488 213.914 58.4609Z" fill="#ED893E"/>
<path d="M213.852 57.7516C213.914 58.3896 213.631 58.93 213.223 58.9655C212.816 59.0009 212.417 58.5136 212.337 57.8845C212.257 57.2555 212.559 56.715 212.966 56.6796C213.374 56.6441 213.79 57.1226 213.852 57.7516Z" fill="#263238"/>
<path d="M212.241 53.0555C212.261 53.113 212.297 53.164 212.343 53.203C212.39 53.242 212.447 53.2676 212.507 53.277C212.967 53.3513 213.403 53.5349 213.778 53.8124C214.152 54.0898 214.455 54.4532 214.66 54.8718C214.678 54.9173 214.706 54.9587 214.74 54.9936C214.775 55.0285 214.816 55.0562 214.861 55.0751C214.906 55.0941 214.955 55.1038 215.004 55.1039C215.053 55.104 215.102 55.0944 215.147 55.0756C215.193 55.0571 215.234 55.0298 215.269 54.9953C215.304 54.9607 215.332 54.9196 215.351 54.8743C215.37 54.829 215.379 54.7804 215.379 54.7313C215.379 54.6822 215.37 54.6336 215.351 54.5883C215.099 54.0557 214.721 53.5921 214.25 53.2372C213.78 52.8824 213.23 52.6467 212.649 52.5505C212.552 52.5322 212.453 52.5527 212.372 52.6074C212.29 52.6622 212.234 52.7468 212.215 52.8428C212.205 52.9148 212.214 52.988 212.241 53.0555Z" fill="#263238"/>
<path d="M218.53 45.6221C218.495 45.6336 218.458 45.6336 218.423 45.6221C217.839 45.3267 217.339 44.8897 216.968 44.3511C216.596 43.8125 216.366 43.1895 216.297 42.5388C216.296 41.8795 216.457 41.23 216.766 40.6475C217.075 40.0651 217.522 39.5675 218.069 39.1986C218.116 39.1633 218.175 39.1482 218.233 39.1565C218.291 39.1648 218.344 39.1959 218.379 39.2429C218.414 39.2899 218.429 39.349 218.421 39.4071C218.413 39.4653 218.382 39.5178 218.335 39.553C217.848 39.8796 217.451 40.3216 217.177 40.8396C216.903 41.3576 216.762 41.9353 216.766 42.5211C216.836 43.0971 217.047 43.6472 217.379 44.123C217.711 44.5988 218.155 44.9858 218.671 45.25C218.722 45.2796 218.758 45.3278 218.773 45.3842C218.788 45.4406 218.78 45.5006 218.751 45.5512C218.724 45.5824 218.69 45.6056 218.65 45.6181C218.611 45.6306 218.569 45.632 218.53 45.6221Z" fill="#263238"/>
<path d="M234.984 53.4456C235.258 61.2335 235.285 66.523 231.112 70.2796C222.819 77.6511 217.051 73.9476 214.446 66.3812C212.098 59.5678 212.036 47.979 219.328 44.2312C220.94 43.4022 222.736 42.9946 224.549 43.0464C226.361 43.0981 228.131 43.6075 229.693 44.5272C231.256 45.4468 232.56 46.7468 233.485 48.3061C234.41 49.8655 234.926 51.6335 234.984 53.4456Z" fill="#FFB573"/>
<path d="M212.846 68.8529C212.414 68.5818 212.04 68.2276 211.747 67.8108C211.453 67.394 211.246 66.9231 211.136 66.4253C210.604 64.5824 213.794 64.0419 213.794 64.0419C213.794 64.0419 213.581 58.4601 215.663 55.306C214.848 52.4973 215.823 45.9232 220.412 46.446C219.934 45.1701 217.931 45.0195 217.931 45.0195C217.931 45.0195 215.61 40.0225 221.068 39.6238C226.526 39.2251 228.422 40.8464 228.103 41.5198C235.377 40.5718 242.571 47.3763 238.345 49.6267C243.82 52.7897 237.273 58.3981 236.289 62.2699C235.306 66.1417 234.322 67.5859 233.055 68.3833C230.185 70.2439 227.181 68.8086 223.779 66.124C221.647 64.2057 219.85 61.9448 218.463 59.4347C218.458 59.5114 218.458 59.5884 218.463 59.6651C217.577 63.6432 220.784 64.8305 221.316 69.9427C221.794 74.5144 218.746 75.1878 213.014 75.0815C207.282 74.9752 212.846 68.8529 212.846 68.8529Z" fill="#263238"/>
<path d="M264.77 244.361L275.765 239.886L281.648 252.6L272.469 256.357L264.77 244.361Z" fill="#FFB573"/>
<path opacity="0.2" d="M264.77 244.369L275.774 239.886L279.061 247.001L269.084 251.076L264.77 244.369Z" fill="black"/>
<path d="M265.506 200.389C261.288 182.669 261.846 155.335 255.104 147.654L218.211 150.161C218.211 150.161 231.988 188.41 237.304 204.562C242.833 221.396 266.932 249.349 266.932 249.349L278.787 244.432C278.787 244.432 271.92 214.458 265.506 200.389Z" fill="#263238"/>
<path d="M231.892 171.009C233.886 178.097 233.602 187.382 233.221 192.565C231.857 188.605 230.368 184.343 228.871 180.108L231.892 171.009Z" fill="black"/>
<path d="M222.777 58.77C222.156 60.48 220.048 62.8899 218.595 62.5178C217.957 62.5178 217.647 60.8698 217.629 59.3548C217.629 57.4322 217.904 54.7121 220.11 54.6855C220.593 54.6883 221.068 54.8108 221.492 55.0421C221.917 55.2734 222.277 55.6062 222.541 56.0108C222.805 56.4155 222.965 56.8793 223.006 57.3608C223.047 57.8423 222.968 58.3265 222.777 58.77Z" fill="#FFB573"/>
<path d="M285.433 253.292L283.484 254.975L282.27 254.647L281.933 256.331L270.149 266.52C269.275 265.654 268.646 264.572 268.324 263.383C268.324 263.383 271.567 260.017 271.408 257.084C271.399 256.975 271.421 256.866 271.471 256.769C271.521 256.672 271.597 256.591 271.691 256.535C273.073 255.773 278.496 252.619 280.268 249.447C280.309 249.37 280.368 249.304 280.44 249.254C280.512 249.204 280.594 249.173 280.681 249.161C280.768 249.15 280.856 249.16 280.938 249.189C281.02 249.219 281.094 249.268 281.154 249.331C282.476 250.76 283.907 252.084 285.433 253.292Z" fill="#7465CE"/>
<path d="M213.961 259.325L225.824 259.44L225.373 273.439L215.458 273.359L213.961 259.325Z" fill="#FFB573"/>
<path opacity="0.2" d="M213.961 259.334L225.824 259.449L225.576 267.29L214.803 267.193L213.961 259.334Z" fill="black"/>
<path d="M227.265 206.183C231.411 187.772 236.125 167.332 233.662 149.107L197.336 152.048C197.336 152.048 200.623 191.272 201.509 207.813C202.395 225.046 213.603 264.783 213.603 264.783L227.203 264.81C227.203 264.81 230.003 225.259 227.265 206.183Z" fill="#263238"/>
<path d="M210.938 77.1374C221.78 75.1109 232.812 74.2878 243.835 74.6832C245.349 74.7708 246.83 75.1668 248.185 75.8469C249.541 76.527 250.744 77.4769 251.719 78.6384C252.695 79.7998 253.423 81.1483 253.859 82.6011C254.295 84.0539 254.429 85.5805 254.254 87.0872C251.472 113.277 256.797 144.048 256.735 149.178C256.735 149.178 233.699 161.635 195.778 153.98C189.576 122.775 198.507 95.5928 202.68 84.2343C203.329 82.4403 204.43 80.8444 205.877 79.601C207.323 78.3576 209.067 77.509 210.938 77.1374Z" fill="#7465CE"/>
<path d="M165.937 89.6474L162.756 93.5015C158.193 96.0975 155.863 89.6563 155.863 89.6563L153.489 86.9983C153.102 86.5032 152.903 85.8872 152.928 85.2595C152.952 84.6319 153.198 84.0331 153.622 83.5695L155.828 80.8583C156.248 80.2749 156.879 79.8783 157.587 79.7525C158.295 79.6268 159.024 79.7819 159.62 80.1849L162.039 82.1253C162.744 82.69 163.298 83.4206 163.651 84.2517L165.937 89.6474Z" fill="#FFB573"/>
<path d="M206.826 80.0078L203.689 82.4177C202.617 83.2329 201.536 84.048 200.446 84.8454C198.267 86.449 196.105 88.0616 193.908 89.5678C192.809 90.3209 191.71 91.0651 190.612 91.7828L188.973 92.8725L187.334 93.9003C185.96 94.7331 184.605 95.5305 183.276 96.257C182.685 96.0739 182.109 95.8613 181.548 95.6191C179.732 94.8926 177.836 94.042 175.94 93.0852C174.044 92.1283 172.121 91.136 170.207 90.0905L167.301 88.4957L164.501 86.9009L156.527 96.8595C157.467 97.7987 158.299 98.6315 159.185 99.4289C160.071 100.226 160.957 101.059 161.897 101.848C163.739 103.425 165.644 104.949 167.647 106.411C169.702 107.919 171.837 109.315 174.044 110.593C176.521 112.06 179.154 113.249 181.894 114.137C183.485 114.637 185.198 114.6 186.767 114.03L187.404 113.8C190.42 112.689 193.361 111.387 196.211 109.901C198.976 108.51 201.527 107.004 204.106 105.471C206.684 103.939 209.138 102.344 211.575 100.687C212.791 99.8542 213.996 99.0125 215.189 98.162C216.412 97.276 217.537 96.4608 218.813 95.504L206.826 80.0078Z" fill="#7465CE"/>
<path d="M287.338 126.266L284.574 130.439C283.413 135.56 290.262 135.905 290.262 135.905L293.478 137.412C294.064 137.638 294.712 137.648 295.306 137.442C295.899 137.237 296.401 136.827 296.721 136.286L298.67 133.389C299.11 132.819 299.309 132.099 299.225 131.383C299.14 130.668 298.779 130.014 298.218 129.562L295.658 127.79C294.913 127.288 294.054 126.983 293.159 126.904L287.338 126.266Z" fill="#FFB573"/>
<path d="M284.225 122.164L278.395 117.787L272.618 113.455C271.209 112.391 269.81 111.319 268.472 110.274C267.169 108.342 265.885 106.243 264.609 104.072C263.909 102.876 263.209 101.662 262.527 100.422C261.844 99.1812 261.145 97.9585 260.462 96.7181C259.089 94.2285 257.804 91.6768 256.466 89.134C255.129 86.5911 253.808 83.9863 252.577 81.5498L235.043 90.3478C236.469 93.1741 237.922 95.7524 239.411 98.4192C240.899 101.086 242.485 103.664 244.098 106.26C245.71 108.856 247.376 111.452 249.184 114.013C250.991 116.573 252.869 119.134 255.022 121.703L255.492 122.262C255.88 122.715 256.331 123.112 256.83 123.44C259.08 124.902 261.26 126.16 263.475 127.418C265.69 128.676 267.905 129.837 270.067 131.006C272.228 132.176 274.497 133.283 276.72 134.364C278.944 135.445 281.15 136.517 283.498 137.527L290.019 126.594C288.123 125.123 286.156 123.653 284.225 122.164Z" fill="#7465CE"/>
</g>
<defs>
<clipPath id="clip0_5512_1706">
<rect width="320" height="260" fill="white"/>
</clipPath>
</defs>
</svg>
