<svg width="320" height="260" viewBox="0 0 320 260" fill="none" xmlns="http://www.w3.org/2000/svg">
<g clip-path="url(#clip0_5512_1707)">
<path d="M66.8443 23.2399H182.164C184.684 23.2672 187.1 24.2443 188.929 25.976C190.759 27.7076 191.868 30.0661 192.034 32.58L205.004 261.7C205.086 262.903 204.918 264.109 204.511 265.244C204.104 266.379 203.467 267.417 202.639 268.294C201.812 269.171 200.813 269.868 199.704 270.34C198.595 270.813 197.4 271.051 196.194 271.04H80.8943C78.3717 271.018 75.9507 270.043 74.1165 268.311C72.2824 266.579 71.1707 264.217 71.0043 261.7L58.0043 32.58C57.9228 31.3746 58.0917 30.1655 58.5005 29.0286C58.9092 27.8918 59.549 26.8519 60.3794 25.9745C61.2099 25.0971 62.213 24.4012 63.3257 23.9305C64.4383 23.4599 65.6363 23.2248 66.8443 23.2399Z" fill="white"/>
<path d="M57.9216 106.37L57.3116 95.6105L58.4116 95.5505L59.0216 106.31L57.9216 106.37ZM56.6616 84.1405L54.8516 52.2905L55.9516 52.2305L57.7616 84.0805L56.6616 84.1405Z" fill="#F5B645"/>
<path d="M196.254 271.48H80.9242C78.2882 271.444 75.7621 270.418 73.8469 268.607C71.9316 266.795 70.7671 264.33 70.5842 261.7L57.5842 32.5803C57.4973 31.3208 57.6718 30.057 58.097 28.8683C58.5221 27.6796 59.1887 26.5918 60.0547 25.6732C60.9207 24.7546 61.9674 24.0252 63.129 23.5307C64.2905 23.0363 65.5419 22.7876 66.8042 22.8003H182.144C184.78 22.8344 187.306 23.8596 189.22 25.6718C191.134 27.484 192.296 29.9504 192.474 32.5803L205.474 261.7C205.561 262.96 205.387 264.223 204.961 265.412C204.536 266.601 203.87 267.689 203.004 268.607C202.138 269.526 201.091 270.255 199.93 270.75C198.768 271.244 197.517 271.493 196.254 271.48ZM66.8642 23.6803C65.7152 23.6678 64.576 23.8935 63.5186 24.3431C62.4611 24.7927 61.5082 25.4565 60.7199 26.2927C59.9317 27.1288 59.3252 28.1192 58.9387 29.2013C58.5522 30.2835 58.3941 31.434 58.4742 32.5803L71.4742 261.7C71.6374 264.095 72.6962 266.34 74.4399 267.989C76.1836 269.638 78.4844 270.571 80.8843 270.6H196.204C197.353 270.611 198.491 270.385 199.548 269.934C200.605 269.484 201.557 268.82 202.345 267.985C203.133 267.149 203.74 266.159 204.127 265.078C204.514 263.996 204.673 262.846 204.594 261.7L191.594 32.5803C191.436 30.1858 190.38 27.9392 188.637 26.2894C186.895 24.6395 184.594 23.7078 182.194 23.6803H66.8642Z" fill="#F5B645"/>
<path opacity="0.2" d="M74.7298 265.1C75.1839 265.107 75.6345 265.019 76.053 264.842C76.4714 264.666 76.8487 264.404 77.1608 264.074C77.4729 263.744 77.7131 263.353 77.8661 262.926C78.0191 262.498 78.0817 262.043 78.0498 261.59L65.0498 32.6901C64.987 31.7445 64.5704 30.8572 63.8829 30.2049C63.1954 29.5526 62.2874 29.1831 61.3398 29.1701C60.8852 29.1649 60.4344 29.2539 60.0159 29.4316C59.5974 29.6093 59.2203 29.8718 58.9083 30.2025C58.5964 30.5333 58.3564 30.9251 58.2034 31.3532C58.0505 31.7814 57.988 32.2366 58.0198 32.6901L71.0198 261.59C71.0827 262.535 71.4996 263.421 72.1874 264.072C72.8751 264.722 73.7831 265.09 74.7298 265.1Z" fill="#F5B645"/>
<path opacity="0.5" d="M135.362 39.8704H176.092C177.475 39.8874 178.8 40.4248 179.805 41.3755C180.809 42.3262 181.419 43.6205 181.512 45.0004L183.822 85.7304C183.867 86.3913 183.775 87.0545 183.552 87.6783C183.329 88.302 182.979 88.8728 182.524 89.3547C182.07 89.8365 181.52 90.2191 180.911 90.4782C180.301 90.7374 179.644 90.8675 178.982 90.8604H138.252C136.87 90.8432 135.545 90.3055 134.542 89.3546C133.539 88.4036 132.932 87.1094 132.842 85.7304L130.532 45.0004C130.485 44.34 130.575 43.677 130.797 43.0533C131.019 42.4295 131.368 41.8586 131.822 41.3766C132.276 40.8945 132.825 40.5118 133.434 40.2526C134.043 39.9933 134.7 39.8632 135.362 39.8704Z" fill="#F5B645"/>
<path opacity="0.4" d="M108.683 41.2903H119.523C120.906 41.3073 122.232 41.8447 123.237 42.7954C124.241 43.7461 124.85 45.0404 124.943 46.4203L125.553 57.2603C125.6 57.9207 125.51 58.5837 125.288 59.2075C125.066 59.8312 124.717 60.4021 124.263 60.8841C123.809 61.3662 123.26 61.7489 122.651 62.0081C122.042 62.2674 121.385 62.3975 120.723 62.3903H109.873C108.491 62.3731 107.167 61.8354 106.164 60.8845C105.161 59.9335 104.554 58.6394 104.463 57.2603L103.843 46.4203C103.798 45.7594 103.89 45.0962 104.113 44.4724C104.336 43.8487 104.686 43.2779 105.141 42.796C105.595 42.3142 106.145 41.9316 106.754 41.6725C107.364 41.4133 108.021 41.2832 108.683 41.2903Z" fill="#F5B645"/>
<path opacity="0.2" d="M81.9124 41.2903H92.7524C94.1361 41.305 95.4631 41.8416 96.4681 42.7928C97.4731 43.744 98.0818 45.0396 98.1724 46.4203L98.7924 57.2603C98.838 57.9212 98.7463 58.5844 98.523 59.2082C98.2998 59.8319 97.9498 60.4027 97.4951 60.8846C97.0405 61.3665 96.491 61.749 95.8813 62.0082C95.2716 62.2673 94.6149 62.3974 93.9524 62.3903H83.1124C81.7295 62.3733 80.4037 61.8359 79.3992 60.8852C78.3948 59.9345 77.7854 58.6402 77.6924 57.2603L77.0824 46.4203C77.0354 45.7599 77.1258 45.0969 77.3479 44.4732C77.57 43.8495 77.919 43.2786 78.3728 42.7965C78.8267 42.3145 79.3756 41.9317 79.9848 41.6725C80.594 41.4132 81.2504 41.2831 81.9124 41.2903Z" fill="#F5B645"/>
<path opacity="0.4" d="M110.209 68.3401H121.049C122.433 68.3548 123.76 68.8914 124.765 69.8426C125.77 70.7938 126.379 72.0894 126.469 73.4701L127.089 84.3101C127.135 84.9711 127.043 85.6343 126.82 86.258C126.597 86.8817 126.247 87.4525 125.792 87.9344C125.337 88.4163 124.788 88.7988 124.178 89.058C123.568 89.3171 122.912 89.4472 122.249 89.4401H111.409C110.026 89.4231 108.701 88.8857 107.696 87.935C106.692 86.9843 106.082 85.69 105.989 84.3101L105.379 73.4701C105.332 72.8097 105.423 72.1467 105.645 71.523C105.867 70.8993 106.216 70.3284 106.67 69.8463C107.124 69.3643 107.672 68.9815 108.282 68.7223C108.891 68.4631 109.547 68.3329 110.209 68.3401Z" fill="#F5B645"/>
<path opacity="0.4" d="M83.4529 68.3401H94.2929C95.6759 68.3571 97.0017 68.8945 98.0061 69.8452C99.0106 70.796 99.62 72.0902 99.7129 73.4701L100.323 84.3101C100.37 84.9705 100.28 85.6335 100.057 86.2573C99.8354 86.881 99.4864 87.4519 99.0325 87.9339C98.5787 88.416 98.0298 88.7987 97.4206 89.058C96.8113 89.3172 96.155 89.4473 95.4929 89.4401H84.6429C83.261 89.423 81.9364 88.8852 80.9336 87.9343C79.9307 86.9833 79.3235 85.6892 79.2329 84.3101L78.6129 73.4701C78.5674 72.8092 78.6591 72.146 78.8823 71.5222C79.1056 70.8985 79.4556 70.3277 79.9102 69.8459C80.3648 69.364 80.9143 68.9814 81.524 68.7223C82.1337 68.4632 82.7905 68.333 83.4529 68.3401Z" fill="#F5B645"/>
<path d="M93.2038 85.8303H86.5239C85.554 85.8174 84.6245 85.4399 83.9204 84.7728C83.2163 84.1057 82.7891 83.198 82.7238 82.2303L82.3438 75.5503C82.312 75.0867 82.3766 74.6216 82.5337 74.1842C82.6908 73.7469 82.9368 73.3469 83.2564 73.0095C83.5759 72.6721 83.962 72.4047 84.3901 72.2241C84.8183 72.0435 85.2792 71.9537 85.7439 71.9603H92.4138C93.3821 71.973 94.3102 72.3491 95.0141 73.0141C95.718 73.6791 96.1462 74.5843 96.2139 75.5503L96.5938 82.2303C96.6255 82.6935 96.5612 83.1583 96.4048 83.5954C96.2485 84.0326 96.0034 84.4327 95.6852 84.7707C95.3669 85.1087 94.9821 85.3773 94.5552 85.5597C94.1282 85.742 93.6681 85.8341 93.2038 85.8303ZM85.7938 72.8303C85.4425 72.8268 85.0942 72.8959 84.7708 73.0333C84.4475 73.1707 84.156 73.3735 83.9147 73.6289C83.6733 73.8843 83.4874 74.1868 83.3685 74.5174C83.2497 74.8481 83.2004 75.1997 83.2238 75.5503L83.6039 82.2303C83.6539 82.961 83.9768 83.6462 84.5084 84.15C85.04 84.6538 85.7415 84.9395 86.4738 84.9503H93.1538C93.5048 84.9539 93.8527 84.8848 94.1756 84.7473C94.4984 84.6098 94.7893 84.4068 95.0299 84.1513C95.2704 83.8957 95.4554 83.5931 95.5731 83.2624C95.6908 82.9318 95.7387 82.5804 95.7139 82.2303L95.3338 75.5503C95.286 74.8188 94.9639 74.1322 94.4318 73.628C93.8997 73.1237 93.1969 72.8388 92.4639 72.8303H85.7938Z" fill="white"/>
<path opacity="0.5" d="M129.613 164.11H88.8826C88.2202 164.103 87.5634 164.233 86.9537 164.492C86.344 164.751 85.7945 165.134 85.3399 165.616C84.8853 166.098 84.5353 166.669 84.312 167.292C84.0888 167.916 83.997 168.579 84.0426 169.24L86.3526 210C86.4433 211.381 87.052 212.676 88.057 213.628C89.0619 214.579 90.389 215.115 91.7726 215.13H132.503C133.165 215.139 133.822 215.01 134.432 214.751C135.042 214.492 135.592 214.11 136.046 213.627C136.5 213.145 136.849 212.573 137.07 211.949C137.292 211.325 137.381 210.661 137.333 210L135.003 169.24C134.912 167.864 134.308 166.573 133.309 165.623C132.311 164.672 130.991 164.132 129.613 164.11Z" fill="#F5B645"/>
<path opacity="0.4" d="M156.449 165.53H145.609C144.947 165.522 144.291 165.651 143.681 165.909C143.071 166.167 142.522 166.548 142.067 167.029C141.612 167.51 141.262 168.081 141.039 168.704C140.815 169.327 140.724 169.99 140.769 170.65L141.389 181.5C141.482 182.879 142.092 184.172 143.097 185.121C144.101 186.07 145.427 186.606 146.809 186.62H157.649C158.311 186.629 158.967 186.5 159.576 186.242C160.185 185.984 160.734 185.602 161.188 185.121C161.642 184.639 161.992 184.069 162.214 183.446C162.436 182.823 162.526 182.16 162.479 181.5L161.869 170.65C161.776 169.271 161.166 167.978 160.162 167.029C159.157 166.08 157.831 165.545 156.449 165.53Z" fill="#F5B645"/>
<path opacity="0.4" d="M183.223 165.53H172.373C171.712 165.522 171.056 165.65 170.446 165.909C169.837 166.167 169.288 166.548 168.834 167.03C168.38 167.511 168.031 168.081 167.809 168.704C167.587 169.328 167.496 169.99 167.543 170.65L168.153 181.5C168.246 182.879 168.856 184.172 169.861 185.121C170.866 186.07 172.191 186.606 173.573 186.62H184.413C185.075 186.629 185.732 186.5 186.342 186.242C186.951 185.984 187.501 185.602 187.956 185.121C188.41 184.64 188.761 184.07 188.984 183.447C189.207 182.823 189.299 182.161 189.253 181.5L188.633 170.65C188.543 169.272 187.935 167.979 186.932 167.03C185.929 166.08 184.604 165.545 183.223 165.53Z" fill="#F5B645"/>
<path opacity="0.4" d="M157.999 192.58H147.139C146.477 192.573 145.821 192.703 145.211 192.963C144.602 193.222 144.053 193.605 143.599 194.087C143.146 194.569 142.797 195.14 142.574 195.763C142.352 196.387 142.262 197.05 142.309 197.71L142.919 208.55C143.012 209.929 143.622 211.222 144.627 212.172C145.631 213.121 146.957 213.656 148.339 213.67H159.179C159.841 213.679 160.498 213.55 161.107 213.292C161.717 213.034 162.266 212.652 162.721 212.171C163.176 211.69 163.526 211.12 163.75 210.497C163.973 209.874 164.065 209.211 164.019 208.55L163.399 197.71C163.311 196.332 162.706 195.038 161.704 194.087C160.703 193.136 159.38 192.598 157.999 192.58Z" fill="#F5B645"/>
<path opacity="0.4" d="M184.751 192.58H173.911C173.248 192.572 172.59 192.701 171.98 192.96C171.37 193.218 170.819 193.601 170.364 194.083C169.91 194.565 169.56 195.137 169.337 195.761C169.114 196.385 169.024 197.049 169.071 197.71L169.691 208.55C169.784 209.929 170.394 211.223 171.398 212.172C172.403 213.121 173.729 213.656 175.111 213.671H186.001C186.662 213.679 187.318 213.55 187.928 213.292C188.537 213.034 189.086 212.652 189.54 212.171C189.994 211.69 190.343 211.119 190.565 210.496C190.787 209.873 190.878 209.21 190.831 208.55L190.221 197.71C190.129 196.321 189.514 195.018 188.498 194.066C187.483 193.114 186.143 192.583 184.751 192.58Z" fill="#F5B645"/>
<path opacity="0.4" d="M159.223 232.67H148.383C147.72 232.663 147.063 232.793 146.454 233.052C145.844 233.311 145.295 233.694 144.84 234.176C144.385 234.658 144.035 235.229 143.812 235.852C143.589 236.476 143.497 237.139 143.543 237.8L144.163 248.64C144.253 250.021 144.862 251.317 145.867 252.268C146.872 253.219 148.199 253.756 149.583 253.77H160.423C161.085 253.777 161.741 253.647 162.35 253.388C162.959 253.129 163.508 252.746 163.962 252.264C164.416 251.782 164.765 251.211 164.987 250.587C165.209 249.964 165.3 249.301 165.253 248.64L164.643 237.8C164.55 236.42 163.94 235.126 162.936 234.175C161.931 233.225 160.606 232.687 159.223 232.67Z" fill="#F5B645"/>
<path opacity="0.4" d="M187.002 232.67H176.182C175.52 232.663 174.864 232.793 174.254 233.052C173.645 233.312 173.096 233.694 172.642 234.176C172.188 234.658 171.84 235.229 171.617 235.853C171.395 236.477 171.305 237.14 171.352 237.8L171.962 248.64C172.055 250.02 172.664 251.314 173.669 252.265C174.673 253.216 175.999 253.753 177.382 253.77H188.222C188.884 253.777 189.541 253.647 190.151 253.388C190.761 253.129 191.31 252.746 191.765 252.264C192.219 251.783 192.569 251.212 192.793 250.588C193.016 249.964 193.108 249.301 193.062 248.64L192.442 237.8C192.351 236.416 191.739 235.118 190.73 234.166C189.721 233.214 188.389 232.68 187.002 232.67Z" fill="#F5B645"/>
<path opacity="0.4" d="M103.613 232.67H92.7733C92.1108 232.663 91.454 232.793 90.8443 233.052C90.2346 233.311 89.6852 233.694 89.2305 234.176C88.7759 234.658 88.4259 235.229 88.2027 235.852C87.9794 236.476 87.8877 237.139 87.9333 237.8L88.5533 248.64C88.6439 250.021 89.2526 251.317 90.2576 252.268C91.2625 253.219 92.5896 253.756 93.9733 253.77H104.813C105.476 253.777 106.132 253.647 106.742 253.388C107.352 253.129 107.901 252.746 108.356 252.264C108.811 251.783 109.161 251.212 109.384 250.588C109.607 249.964 109.699 249.301 109.653 248.64L109.003 237.8C108.911 236.425 108.306 235.135 107.307 234.185C106.309 233.235 104.991 232.695 103.613 232.67Z" fill="#F5B645"/>
<path opacity="0.4" d="M131.419 232.67H120.569C119.907 232.663 119.25 232.793 118.641 233.052C118.032 233.312 117.483 233.694 117.029 234.176C116.575 234.658 116.226 235.229 116.004 235.853C115.782 236.477 115.692 237.14 115.739 237.8L116.349 248.64C116.442 250.02 117.051 251.314 118.055 252.265C119.06 253.216 120.386 253.753 121.769 253.77H132.609C133.271 253.777 133.928 253.647 134.538 253.388C135.147 253.129 135.697 252.746 136.151 252.264C136.606 251.783 136.956 251.212 137.179 250.588C137.403 249.964 137.494 249.301 137.449 248.64L136.829 237.8C136.738 236.421 136.131 235.127 135.128 234.176C134.125 233.225 132.801 232.687 131.419 232.67Z" fill="#F5B645"/>
<path opacity="0.2" d="M143.794 222C143.612 221.998 143.432 222.034 143.264 222.105C143.097 222.177 142.946 222.282 142.821 222.414C142.696 222.547 142.6 222.704 142.538 222.875C142.477 223.046 142.452 223.228 142.464 223.41C142.489 223.79 142.657 224.146 142.933 224.407C143.209 224.668 143.574 224.816 143.954 224.82C144.136 224.823 144.318 224.789 144.486 224.718C144.654 224.647 144.806 224.542 144.931 224.409C145.056 224.276 145.152 224.119 145.213 223.947C145.274 223.775 145.298 223.592 145.284 223.41C145.259 223.031 145.091 222.675 144.815 222.413C144.539 222.152 144.174 222.004 143.794 222Z" fill="#F5B645"/>
<path opacity="0.2" d="M152.792 222C152.609 221.998 152.428 222.034 152.26 222.105C152.092 222.177 151.941 222.282 151.815 222.414C151.689 222.546 151.592 222.703 151.53 222.874C151.467 223.046 151.441 223.228 151.452 223.41C151.479 223.79 151.649 224.146 151.927 224.408C152.204 224.669 152.57 224.816 152.952 224.82C153.134 224.822 153.314 224.786 153.482 224.715C153.649 224.643 153.8 224.538 153.925 224.406C154.05 224.273 154.146 224.117 154.207 223.945C154.269 223.774 154.294 223.592 154.282 223.41C154.256 223.031 154.089 222.675 153.813 222.413C153.537 222.152 153.172 222.004 152.792 222Z" fill="#F5B645"/>
<path opacity="0.2" d="M125.802 222C125.62 221.998 125.439 222.034 125.272 222.105C125.104 222.177 124.953 222.282 124.829 222.414C124.704 222.547 124.607 222.704 124.546 222.875C124.485 223.046 124.459 223.228 124.472 223.41C124.497 223.79 124.664 224.146 124.941 224.407C125.217 224.668 125.582 224.816 125.962 224.82C126.144 224.823 126.325 224.789 126.494 224.718C126.662 224.647 126.813 224.542 126.939 224.409C127.064 224.276 127.16 224.119 127.221 223.947C127.282 223.775 127.306 223.592 127.292 223.41C127.267 223.031 127.099 222.675 126.823 222.413C126.547 222.152 126.182 222.004 125.802 222Z" fill="#F5B645"/>
<path opacity="0.4" d="M134.803 222C134.621 221.998 134.44 222.034 134.272 222.105C134.104 222.177 133.953 222.282 133.827 222.414C133.701 222.546 133.604 222.703 133.542 222.874C133.479 223.046 133.452 223.228 133.463 223.41C133.491 223.79 133.66 224.146 133.938 224.408C134.216 224.669 134.582 224.816 134.963 224.82C135.145 224.822 135.326 224.786 135.493 224.715C135.661 224.643 135.812 224.538 135.937 224.406C136.062 224.273 136.158 224.117 136.219 223.945C136.28 223.774 136.306 223.592 136.293 223.41C136.268 223.031 136.101 222.675 135.825 222.413C135.548 222.152 135.184 222.004 134.803 222Z" fill="#F5B645"/>
<path d="M86.3201 78.89C86.3778 79.7374 86.7525 80.5321 87.3695 81.1158C87.9866 81.6994 88.8007 82.0294 89.6501 82.04C90.0595 82.0494 90.4664 81.9732 90.8446 81.8162C91.2229 81.6592 91.5641 81.4249 91.8466 81.1284C92.129 80.8318 92.3464 80.4795 92.4848 80.0941C92.6231 79.7086 92.6794 79.2985 92.6501 78.89C92.5923 78.0426 92.2177 77.248 91.6006 76.6643C90.9836 76.0806 90.1694 75.7506 89.3201 75.74C88.9106 75.7306 88.5038 75.8068 88.1255 75.9638C87.7472 76.1208 87.406 76.3551 87.1235 76.6517C86.8411 76.9482 86.6237 77.3005 86.4854 77.686C86.347 78.0714 86.2907 78.4815 86.3201 78.89Z" fill="white"/>
<path d="M158.211 83.61C153.294 83.5461 148.581 81.6345 145.009 78.2551C141.437 74.8757 139.267 70.2759 138.931 65.37C138.769 63.0196 139.096 60.6612 139.89 58.4431C140.684 56.2249 141.928 54.195 143.544 52.481C145.161 50.767 147.114 49.4059 149.282 48.4833C151.45 47.5607 153.785 47.0965 156.141 47.12C161.058 47.1865 165.769 49.1006 169.34 52.4819C172.91 55.8632 175.077 60.464 175.411 65.37C175.572 67.7191 175.246 70.0762 174.453 72.2931C173.659 74.51 172.416 76.5388 170.8 78.2519C169.185 79.965 167.232 81.3254 165.066 82.2475C162.899 83.1696 160.565 83.6335 158.211 83.61ZM156.211 48C153.968 47.9767 151.745 48.4178 149.682 49.2956C147.618 50.1734 145.758 51.4689 144.22 53.1005C142.681 54.7321 141.497 56.6645 140.742 58.776C139.986 60.8876 139.676 63.1327 139.831 65.37C140.15 70.0396 142.214 74.4183 145.614 77.6349C149.014 80.8515 153.501 82.6705 158.181 82.73C160.422 82.7533 162.644 82.3124 164.706 81.4351C166.769 80.5578 168.627 79.2631 170.165 77.6324C171.703 76.0018 172.886 74.0705 173.641 71.9601C174.396 69.8497 174.706 67.6059 174.551 65.37C174.237 60.696 172.172 56.3122 168.769 53.0928C165.366 49.8733 160.875 48.0549 156.191 48H156.211Z" fill="white"/>
<path d="M157.199 65.8006C157.137 65.8155 157.072 65.8155 157.009 65.8006L150.489 62.8006C150.381 62.7521 150.295 62.6643 150.248 62.5548C150.202 62.4453 150.199 62.3223 150.239 62.2106C150.262 62.1585 150.295 62.1116 150.336 62.0726C150.377 62.0336 150.426 62.0033 150.479 61.9837C150.533 61.9641 150.589 61.9555 150.646 61.9584C150.703 61.9613 150.758 61.9756 150.809 62.0006L157.079 64.8606L164.419 58.5906C164.509 58.5124 164.627 58.4732 164.746 58.4816C164.865 58.49 164.976 58.5454 165.054 58.6356C165.133 58.7258 165.172 58.8433 165.163 58.9624C165.155 59.0815 165.099 59.1924 165.009 59.2706L157.469 65.7206C157.391 65.7761 157.296 65.8042 157.199 65.8006Z" fill="white"/>
<path d="M118.002 57.5499C117.758 57.5461 117.521 57.4695 117.322 57.3299L115.082 55.7699C115.039 55.7358 114.986 55.7172 114.932 55.7172C114.877 55.7172 114.824 55.7358 114.782 55.7699L112.722 57.3299C112.527 57.4714 112.292 57.5476 112.052 57.5476C111.811 57.5476 111.577 57.4714 111.382 57.3299C111.18 57.1911 111.026 56.9945 110.938 56.766C110.851 56.5374 110.834 56.2878 110.892 56.0499L111.572 53.5299C111.584 53.4761 111.58 53.4199 111.561 53.3683C111.541 53.3167 111.507 53.272 111.462 53.2399L109.232 51.6799C109.027 51.5468 108.869 51.3524 108.781 51.1243C108.693 50.8962 108.679 50.6462 108.742 50.4099C108.799 50.1868 108.928 49.9886 109.108 49.8458C109.289 49.7031 109.512 49.6237 109.742 49.6199H112.392C112.446 49.6199 112.498 49.6023 112.542 49.5699C112.585 49.5374 112.617 49.4918 112.632 49.4399L113.302 46.9199C113.359 46.6968 113.487 46.4986 113.668 46.3558C113.849 46.2131 114.072 46.1337 114.302 46.1299C114.548 46.1294 114.789 46.205 114.992 46.3464C115.194 46.4878 115.347 46.688 115.432 46.9199L116.432 49.4399C116.453 49.4918 116.489 49.5365 116.535 49.5684C116.581 49.6004 116.636 49.6183 116.692 49.6199H119.342C119.588 49.6194 119.829 49.695 120.032 49.8364C120.234 49.9778 120.387 50.178 120.472 50.4099C120.564 50.6292 120.581 50.8732 120.52 51.1033C120.458 51.3333 120.322 51.5362 120.132 51.6799L118.072 53.2399C118.029 53.2732 117.999 53.32 117.986 53.3727C117.974 53.4253 117.979 53.4807 118.002 53.5299L119.002 56.0499C119.093 56.271 119.11 56.5161 119.048 56.7474C118.987 56.9788 118.851 57.1835 118.662 57.3299C118.469 57.469 118.239 57.5458 118.002 57.5499ZM109.832 50.4999C109.777 50.4982 109.724 50.5151 109.68 50.5478C109.637 50.5805 109.605 50.6271 109.592 50.6799C109.578 50.7337 109.581 50.7904 109.601 50.8423C109.621 50.8941 109.656 50.9387 109.702 50.9699L111.932 52.5299C112.135 52.665 112.291 52.8597 112.378 53.0871C112.466 53.3145 112.481 53.5635 112.422 53.7999L111.752 56.3199C111.734 56.375 111.735 56.4344 111.755 56.4888C111.775 56.5431 111.813 56.5893 111.862 56.6199C111.905 56.6523 111.958 56.6699 112.012 56.6699C112.066 56.6699 112.118 56.6523 112.162 56.6199L114.222 55.0599C114.417 54.9184 114.651 54.8422 114.892 54.8422C115.132 54.8422 115.367 54.9184 115.562 55.0599L117.792 56.6199C117.837 56.6532 117.891 56.6711 117.947 56.6711C118.003 56.6711 118.057 56.6532 118.102 56.6199C118.146 56.5851 118.177 56.5372 118.191 56.4831C118.206 56.4291 118.202 56.3718 118.182 56.3199L117.182 53.7999C117.091 53.5803 117.075 53.3368 117.136 53.1072C117.198 52.8776 117.333 52.6747 117.522 52.5299L119.522 50.9699C119.568 50.9392 119.601 50.893 119.616 50.8398C119.63 50.7865 119.625 50.7298 119.602 50.6799C119.584 50.6255 119.549 50.5784 119.502 50.5458C119.455 50.5133 119.399 50.4971 119.342 50.4999H116.692C116.446 50.4962 116.207 50.4189 116.006 50.2781C115.804 50.1373 115.65 49.9394 115.562 49.7099L114.562 47.1899C114.543 47.1364 114.508 47.0902 114.461 47.0578C114.414 47.0255 114.359 47.0087 114.302 47.0099C114.249 47.0086 114.196 47.0259 114.155 47.0587C114.113 47.0915 114.083 47.1379 114.072 47.1899L113.392 49.7099C113.333 49.9322 113.204 50.1295 113.024 50.2719C112.843 50.4144 112.622 50.4944 112.392 50.4999H109.832Z" fill="white"/>
<path d="M91.132 58.2106H84.942C84.5263 58.2064 84.1274 58.0455 83.8252 57.76C83.523 57.4745 83.3397 57.0854 83.312 56.6705L82.962 50.4706C82.9579 50.4142 82.9654 50.3577 82.9842 50.3044C83.0029 50.2512 83.0325 50.2024 83.071 50.161C83.1095 50.1197 83.1561 50.0868 83.2079 50.0644C83.2597 50.0419 83.3156 50.0304 83.372 50.0305H85.112C85.3107 50.0324 85.5076 49.9931 85.6903 49.9152C85.8731 49.8373 86.0377 49.7224 86.1739 49.5778C86.3101 49.4331 86.4149 49.2619 86.4817 49.0747C86.5485 48.8876 86.5758 48.6887 86.562 48.4905L86.472 46.7506C86.4679 46.6942 86.4754 46.6377 86.4942 46.5844C86.5129 46.5312 86.5425 46.4823 86.581 46.441C86.6195 46.3997 86.6661 46.3668 86.7179 46.3444C86.7697 46.3219 86.8256 46.3104 86.882 46.3105H90.462C90.8767 46.3148 91.2744 46.4761 91.575 46.7618C91.8756 47.0476 92.0568 47.4366 92.082 47.8505L92.582 56.6705C92.5958 56.8687 92.5685 57.0676 92.5017 57.2547C92.4349 57.4419 92.3301 57.6131 92.1939 57.7578C92.0577 57.9024 91.8931 58.0173 91.7103 58.0952C91.5276 58.1731 91.3307 58.2124 91.132 58.2106ZM83.862 50.9106L84.192 56.6705C84.2068 56.8475 84.2864 57.0128 84.4156 57.1346C84.5448 57.2565 84.7145 57.3262 84.892 57.3306H91.082C91.1674 57.3322 91.2521 57.316 91.3308 57.2829C91.4094 57.2498 91.4803 57.2005 91.5387 57.1383C91.5971 57.0761 91.6419 57.0023 91.67 56.9218C91.6981 56.8412 91.709 56.7556 91.702 56.6705L91.202 47.8505C91.1897 47.6744 91.1121 47.5093 90.9845 47.3872C90.857 47.2652 90.6885 47.1951 90.512 47.1906H87.372L87.442 48.4905C87.4657 48.8025 87.4241 49.1161 87.3197 49.411C87.2154 49.706 87.0507 49.976 86.8361 50.2038C86.6216 50.4315 86.3619 50.612 86.0736 50.7337C85.7854 50.8554 85.4749 50.9156 85.162 50.9106H83.862Z" fill="white"/>
<path d="M120.76 83.3007H112.21C111.976 83.2964 111.752 83.2048 111.581 83.0439C111.411 82.8829 111.307 82.6643 111.29 82.4307C111.285 82.3211 111.302 82.2117 111.34 82.1087C111.378 82.0057 111.435 81.9112 111.51 81.8307L112.06 81.2407L111.93 78.9607C111.891 78.4149 111.961 77.8667 112.137 77.3484C112.313 76.8302 112.591 76.3525 112.954 75.9433C113.318 75.5342 113.759 75.202 114.253 74.9662C114.747 74.7305 115.283 74.596 115.83 74.5707C116.419 74.5479 117.007 74.6422 117.56 74.8481C118.113 75.0541 118.619 75.3677 119.05 75.7707C119.931 76.5706 120.466 77.6828 120.54 78.8707L120.67 81.2507L121.29 81.8207C121.458 81.981 121.558 82.1991 121.57 82.4307C121.578 82.542 121.563 82.6538 121.526 82.7591C121.489 82.8645 121.431 82.961 121.355 83.0427C121.279 83.1244 121.187 83.1895 121.084 83.2339C120.982 83.2783 120.871 83.301 120.76 83.3007ZM116 75.4407H115.87C115.433 75.4621 115.005 75.571 114.611 75.7607C114.217 75.9505 113.865 76.2174 113.576 76.5456C113.287 76.8738 113.067 77.2566 112.928 77.6715C112.79 78.0863 112.736 78.5247 112.77 78.9607L112.9 81.2507C112.905 81.3619 112.889 81.4731 112.851 81.5778C112.813 81.6825 112.755 81.7787 112.68 81.8607L112.13 82.4407H120.67L120.04 81.8807C119.875 81.7172 119.773 81.5015 119.75 81.2707L119.62 78.8907C119.558 77.9443 119.132 77.0588 118.43 76.4207C117.772 75.8004 116.904 75.4506 116 75.4407Z" fill="white"/>
<path d="M115.244 73.0505C115.254 73.2291 115.332 73.3971 115.462 73.5198C115.592 73.6426 115.765 73.7108 115.944 73.7105C116.029 73.7122 116.114 73.696 116.192 73.6628C116.271 73.6297 116.342 73.5805 116.4 73.5183C116.459 73.4561 116.503 73.3823 116.531 73.3017C116.56 73.2212 116.571 73.1356 116.564 73.0505C116.551 72.8737 116.472 72.7082 116.342 72.5875C116.212 72.4669 116.041 72.4 115.864 72.4005C115.779 72.3989 115.695 72.4149 115.617 72.4474C115.539 72.4799 115.469 72.5283 115.411 72.5894C115.352 72.6505 115.308 72.723 115.279 72.8024C115.25 72.8818 115.238 72.9662 115.244 73.0505Z" fill="white"/>
<path d="M117.4 84.1106C117.457 84.1099 117.512 84.1224 117.563 84.1471C117.613 84.1717 117.657 84.2079 117.691 84.2526C117.725 84.2973 117.748 84.3493 117.759 84.4046C117.769 84.4598 117.766 84.5166 117.75 84.5706C117.67 84.8113 117.516 85.0204 117.309 85.1677C117.102 85.315 116.854 85.3931 116.601 85.3906C116.337 85.3877 116.08 85.3089 115.86 85.1634C115.64 85.0179 115.466 84.8121 115.36 84.5706C115.336 84.5209 115.325 84.4657 115.329 84.4105C115.332 84.3553 115.35 84.3019 115.38 84.2555C115.41 84.2092 115.452 84.1715 115.501 84.1461C115.55 84.1207 115.605 84.1085 115.66 84.1106H117.4Z" fill="white"/>
<path d="M146.451 182C146.38 181.999 146.31 181.982 146.246 181.951C146.182 181.92 146.126 181.875 146.081 181.82C146.033 181.746 146.007 181.659 146.007 181.57C146.007 181.481 146.033 181.395 146.081 181.32C146.429 180.723 146.734 180.101 146.991 179.46C146.231 178.478 145.785 177.29 145.711 176.05C145.653 175.279 145.755 174.505 146.012 173.776C146.269 173.047 146.674 172.379 147.203 171.815C147.731 171.251 148.371 170.803 149.082 170.499C149.792 170.195 150.558 170.042 151.331 170.05C152.944 170.07 154.489 170.7 155.656 171.813C156.823 172.926 157.525 174.44 157.621 176.05C157.675 176.817 157.569 177.588 157.31 178.312C157.052 179.036 156.645 179.699 156.117 180.258C155.589 180.818 154.95 181.261 154.242 181.561C153.533 181.861 152.77 182.01 152.001 182C150.86 181.995 149.743 181.677 148.771 181.08C148.085 181.472 147.352 181.777 146.591 181.99L146.451 182ZM148.701 180.13C148.794 180.127 148.886 180.155 148.961 180.21C149.846 180.811 150.892 181.128 151.961 181.12C152.616 181.127 153.265 180.999 153.867 180.743C154.47 180.486 155.012 180.108 155.462 179.632C155.911 179.156 156.256 178.591 156.476 177.975C156.697 177.359 156.787 176.703 156.741 176.05C156.651 174.684 156.049 173.403 155.055 172.461C154.062 171.52 152.75 170.987 151.381 170.97C150.725 170.963 150.075 171.092 149.471 171.348C148.868 171.605 148.324 171.984 147.874 172.461C147.424 172.938 147.077 173.504 146.857 174.121C146.636 174.739 146.546 175.396 146.591 176.05C146.664 177.184 147.095 178.266 147.821 179.14C147.875 179.198 147.91 179.271 147.925 179.349C147.939 179.426 147.931 179.507 147.901 179.58C147.731 180.02 147.561 180.42 147.401 180.76C147.786 180.594 148.16 180.404 148.521 180.19C148.579 180.168 148.64 180.158 148.701 180.16V180.13Z" fill="white"/>
<path d="M113.354 201.53H108.734C107.627 201.514 106.545 201.203 105.597 200.63C104.65 200.058 103.872 199.243 103.344 198.27C102.964 197.591 102.447 196.998 101.824 196.53C100.056 195.206 98.5963 193.513 97.5466 191.568C96.4968 189.624 95.8818 187.475 95.7439 185.27C95.6085 183.339 95.8912 181.402 96.5727 179.59C97.2543 177.778 98.3185 176.135 99.693 174.772C101.067 173.409 102.72 172.358 104.537 171.692C106.354 171.026 108.294 170.759 110.224 170.91C113.868 171.191 117.296 172.749 119.903 175.311C122.51 177.872 124.129 181.272 124.474 184.91C124.683 187.084 124.359 189.276 123.532 191.297C122.704 193.318 121.397 195.107 119.724 196.51C119.143 196.984 118.681 197.587 118.374 198.27C117.949 199.246 117.246 200.075 116.354 200.655C115.461 201.234 114.418 201.539 113.354 201.53ZM109.354 171.72C107.604 171.699 105.869 172.042 104.258 172.725C102.647 173.409 101.196 174.42 99.9958 175.693C98.7956 176.967 97.8727 178.476 97.2854 180.124C96.6981 181.773 96.4593 183.525 96.5839 185.27C96.7127 187.349 97.2918 189.374 98.2813 191.206C99.2707 193.038 100.647 194.633 102.314 195.88C103.037 196.414 103.637 197.096 104.074 197.88C104.529 198.712 105.196 199.408 106.008 199.898C106.819 200.388 107.746 200.655 108.694 200.67H113.314C114.225 200.677 115.118 200.416 115.882 199.92C116.646 199.424 117.248 198.715 117.614 197.88C117.967 197.085 118.501 196.383 119.174 195.83C120.752 194.509 121.985 192.824 122.766 190.919C123.546 189.015 123.851 186.949 123.654 184.9C123.328 181.474 121.803 178.272 119.348 175.859C116.893 173.447 113.666 171.977 110.234 171.71L109.354 171.72Z" fill="white"/>
<path d="M114.692 208.451H108.182C107.644 208.444 107.129 208.234 106.739 207.863C106.35 207.492 106.115 206.987 106.082 206.451L106.002 205.05C105.981 204.794 106.014 204.535 106.099 204.292C106.184 204.048 106.319 203.825 106.495 203.637C106.671 203.449 106.884 203.299 107.122 203.198C107.359 203.097 107.614 203.047 107.872 203.05H114.392C114.929 203.059 115.444 203.27 115.833 203.641C116.222 204.011 116.457 204.514 116.492 205.05L116.572 206.451C116.592 206.708 116.557 206.967 116.471 207.21C116.385 207.454 116.25 207.676 116.073 207.865C115.896 208.053 115.682 208.202 115.444 208.303C115.206 208.404 114.95 208.454 114.692 208.451ZM107.922 203.91C107.773 203.909 107.626 203.938 107.489 203.996C107.352 204.054 107.228 204.139 107.126 204.247C107.024 204.355 106.945 204.483 106.894 204.623C106.844 204.763 106.823 204.912 106.832 205.06L106.912 206.46C106.93 206.773 107.066 207.066 107.293 207.282C107.519 207.497 107.819 207.618 108.132 207.62H114.642C114.792 207.622 114.94 207.593 115.078 207.534C115.216 207.476 115.34 207.389 115.442 207.28C115.545 207.171 115.623 207.042 115.673 206.901C115.723 206.76 115.743 206.61 115.732 206.46L115.652 205.06C115.632 204.75 115.495 204.459 115.268 204.245C115.042 204.032 114.743 203.912 114.432 203.91H107.922Z" fill="white"/>
<path d="M159.242 209H147.752C147.346 208.994 146.957 208.835 146.662 208.555C146.368 208.276 146.189 207.896 146.162 207.49L145.672 198.76C145.658 198.567 145.684 198.372 145.75 198.189C145.815 198.006 145.918 197.839 146.051 197.698C146.185 197.557 146.346 197.445 146.525 197.37C146.705 197.294 146.897 197.257 147.092 197.26H158.572C158.977 197.265 159.365 197.421 159.66 197.699C159.955 197.977 160.134 198.356 160.162 198.76L160.662 207.49C160.674 207.684 160.646 207.879 160.58 208.062C160.515 208.244 160.412 208.412 160.279 208.553C160.146 208.695 159.985 208.807 159.807 208.884C159.628 208.961 159.436 209.001 159.242 209ZM147.142 198.14C147.061 198.137 146.98 198.151 146.905 198.182C146.83 198.212 146.762 198.258 146.706 198.317C146.651 198.376 146.608 198.446 146.581 198.522C146.554 198.599 146.544 198.68 146.552 198.76L147.042 207.49C147.052 207.659 147.125 207.818 147.248 207.935C147.37 208.052 147.532 208.118 147.702 208.12H159.192C159.273 208.121 159.353 208.104 159.427 208.072C159.501 208.04 159.568 207.993 159.624 207.934C159.679 207.875 159.721 207.805 159.749 207.729C159.776 207.652 159.787 207.571 159.782 207.49L159.282 198.76C159.271 198.592 159.197 198.435 159.075 198.319C158.952 198.204 158.79 198.14 158.622 198.14H147.142Z" fill="white"/>
<path d="M159.829 200.74H146.219C146.1 200.74 145.986 200.695 145.901 200.613C145.815 200.531 145.764 200.419 145.759 200.3C145.755 200.244 145.762 200.188 145.781 200.134C145.8 200.081 145.829 200.032 145.868 199.991C145.906 199.95 145.953 199.917 146.005 199.894C146.057 199.872 146.112 199.86 146.169 199.86H159.779C159.899 199.86 160.014 199.905 160.101 199.987C160.188 200.069 160.241 200.181 160.249 200.3C160.253 200.358 160.245 200.415 160.226 200.469C160.207 200.523 160.176 200.572 160.137 200.614C160.097 200.655 160.049 200.688 159.996 200.71C159.943 200.731 159.886 200.742 159.829 200.74Z" fill="white"/>
<path d="M148.45 203.79H149.85C149.901 203.792 149.951 203.783 149.997 203.763C150.044 203.744 150.086 203.715 150.12 203.678C150.154 203.641 150.18 203.597 150.195 203.549C150.211 203.501 150.216 203.45 150.21 203.4V202.78C150.203 202.676 150.157 202.578 150.081 202.506C150.005 202.434 149.905 202.392 149.8 202.39H148.4C148.35 202.39 148.301 202.4 148.255 202.42C148.209 202.44 148.168 202.469 148.135 202.506C148.101 202.543 148.075 202.586 148.059 202.633C148.042 202.68 148.036 202.73 148.04 202.78V203.4C148.045 203.505 148.091 203.605 148.167 203.677C148.244 203.75 148.345 203.79 148.45 203.79Z" fill="white"/>
<path d="M152.501 203.79H153.901C153.951 203.792 154.002 203.783 154.048 203.763C154.095 203.744 154.136 203.715 154.171 203.678C154.205 203.641 154.231 203.597 154.246 203.549C154.262 203.501 154.267 203.45 154.261 203.4V202.78C154.254 202.676 154.207 202.578 154.132 202.506C154.056 202.434 153.956 202.392 153.851 202.39H152.451C152.401 202.39 152.352 202.4 152.306 202.42C152.26 202.44 152.219 202.469 152.185 202.506C152.151 202.543 152.126 202.586 152.109 202.633C152.093 202.68 152.087 202.73 152.091 202.78V203.4C152.096 203.505 152.142 203.605 152.218 203.677C152.294 203.75 152.396 203.79 152.501 203.79Z" fill="white"/>
<path d="M156.55 203.79H158C158.051 203.792 158.101 203.783 158.148 203.763C158.195 203.744 158.237 203.715 158.272 203.678C158.307 203.641 158.334 203.597 158.351 203.55C158.368 203.502 158.374 203.451 158.37 203.4V202.78C158.362 202.676 158.316 202.578 158.24 202.506C158.164 202.434 158.064 202.392 157.96 202.39H156.56C156.51 202.391 156.462 202.403 156.417 202.423C156.371 202.443 156.331 202.473 156.297 202.509C156.264 202.545 156.238 202.588 156.221 202.635C156.204 202.681 156.197 202.731 156.2 202.78V203.4C156.205 203.495 156.243 203.586 156.306 203.656C156.37 203.727 156.456 203.774 156.55 203.79Z" fill="white"/>
<path d="M148.61 206.66H150C150.05 206.661 150.099 206.653 150.145 206.634C150.192 206.615 150.233 206.587 150.268 206.551C150.303 206.516 150.33 206.473 150.348 206.426C150.365 206.38 150.373 206.33 150.37 206.28V205.65C150.365 205.547 150.32 205.451 150.246 205.38C150.171 205.309 150.072 205.27 149.97 205.27H148.56C148.511 205.27 148.462 205.28 148.417 205.299C148.372 205.319 148.332 205.347 148.298 205.382C148.264 205.418 148.238 205.46 148.221 205.506C148.204 205.552 148.197 205.601 148.2 205.65V206.28C148.21 206.383 148.257 206.478 148.332 206.548C148.408 206.618 148.507 206.658 148.61 206.66Z" fill="white"/>
<path d="M152.662 206.66H154.072C154.121 206.66 154.17 206.65 154.215 206.631C154.26 206.612 154.3 206.583 154.334 206.548C154.368 206.512 154.394 206.47 154.411 206.424C154.428 206.378 154.435 206.329 154.432 206.28V205.65C154.427 205.547 154.383 205.451 154.308 205.38C154.234 205.309 154.135 205.27 154.032 205.27H152.622C152.573 205.27 152.525 205.28 152.48 205.299C152.435 205.319 152.394 205.347 152.36 205.382C152.327 205.418 152.301 205.46 152.284 205.506C152.267 205.552 152.26 205.601 152.262 205.65V206.28C152.267 206.383 152.312 206.479 152.386 206.55C152.461 206.621 152.56 206.66 152.662 206.66Z" fill="white"/>
<path d="M156.713 206.66H158.123C158.172 206.66 158.221 206.65 158.266 206.631C158.311 206.612 158.351 206.583 158.385 206.548C158.419 206.512 158.445 206.47 158.462 206.424C158.478 206.378 158.486 206.329 158.483 206.28V205.65C158.478 205.547 158.434 205.451 158.359 205.38C158.285 205.309 158.186 205.27 158.083 205.27H156.673C156.624 205.27 156.576 205.28 156.531 205.299C156.485 205.319 156.445 205.347 156.411 205.382C156.377 205.418 156.351 205.46 156.334 205.506C156.318 205.552 156.31 205.601 156.313 205.65V206.28C156.318 206.383 156.363 206.479 156.437 206.55C156.512 206.621 156.61 206.66 156.713 206.66Z" fill="white"/>
<path d="M179.54 183.47H177.6C177.296 183.469 177.004 183.353 176.782 183.145C176.559 182.937 176.423 182.654 176.4 182.35L176.32 180.79C176.302 180.644 176.317 180.496 176.363 180.356C176.409 180.216 176.485 180.088 176.587 179.981C176.688 179.874 176.812 179.79 176.949 179.737C177.086 179.683 177.233 179.66 177.38 179.67H179.32C179.624 179.67 179.917 179.786 180.138 179.994C180.359 180.202 180.493 180.487 180.51 180.79L180.6 182.35C180.619 182.497 180.604 182.645 180.558 182.785C180.512 182.925 180.436 183.053 180.334 183.16C180.233 183.267 180.109 183.35 179.972 183.404C179.835 183.458 179.687 183.48 179.54 183.47ZM177.43 180.55C177.399 180.549 177.368 180.554 177.338 180.566C177.309 180.577 177.283 180.595 177.261 180.618C177.239 180.641 177.222 180.668 177.212 180.698C177.201 180.727 177.198 180.759 177.2 180.79L177.28 182.35C177.288 182.417 177.32 182.478 177.369 182.522C177.419 182.566 177.484 182.591 177.55 182.59H179.49C179.522 182.592 179.553 182.587 179.583 182.575C179.612 182.563 179.638 182.546 179.66 182.523C179.682 182.5 179.699 182.473 179.709 182.443C179.72 182.413 179.723 182.382 179.72 182.35L179.64 180.79C179.633 180.724 179.601 180.663 179.552 180.619C179.502 180.574 179.437 180.55 179.37 180.55H177.43ZM179.84 178.55H176.74C176.622 178.548 176.508 178.502 176.421 178.421C176.334 178.34 176.28 178.229 176.27 178.11V177.8C176.221 177.32 176.262 176.835 176.39 176.37C176.511 176.004 176.701 175.665 176.95 175.37C177.431 174.834 177.953 174.336 178.51 173.88C178.95 173.5 178.98 173.29 178.97 173.23C178.976 173.161 178.966 173.092 178.94 173.027C178.914 172.963 178.873 172.906 178.82 172.86C178.673 172.762 178.497 172.716 178.32 172.73C178.202 172.723 178.083 172.741 177.973 172.784C177.862 172.827 177.762 172.894 177.68 172.98C177.47 173.3 177.365 173.678 177.38 174.06C177.381 174.116 177.369 174.172 177.345 174.222C177.32 174.272 177.285 174.316 177.24 174.35C177.197 174.389 177.146 174.417 177.091 174.435C177.036 174.452 176.978 174.457 176.92 174.45L173.73 174.05C173.616 174.038 173.51 173.983 173.434 173.895C173.358 173.808 173.317 173.696 173.32 173.58C173.316 172.432 173.753 171.326 174.54 170.49C175.547 169.632 176.852 169.208 178.17 169.31C179.28 169.267 180.379 169.548 181.33 170.12C181.86 170.431 182.306 170.867 182.629 171.39C182.951 171.913 183.141 172.507 183.18 173.12C183.207 173.662 183.086 174.202 182.83 174.68C182.413 175.34 181.878 175.916 181.25 176.38C180.905 176.625 180.609 176.934 180.38 177.29C180.271 177.549 180.229 177.831 180.26 178.11C180.271 178.171 180.268 178.232 180.251 178.291C180.235 178.35 180.205 178.405 180.165 178.451C180.125 178.497 180.075 178.533 180.019 178.557C179.962 178.581 179.902 178.593 179.84 178.59V178.55ZM177.13 177.67H179.37C179.385 177.393 179.453 177.122 179.57 176.87C179.85 176.407 180.221 176.006 180.66 175.69C181.202 175.288 181.669 174.794 182.04 174.23C182.23 173.892 182.316 173.507 182.29 173.12C182.266 172.647 182.123 172.188 181.875 171.784C181.627 171.381 181.282 171.046 180.87 170.81C180.068 170.334 179.143 170.101 178.21 170.14C177.673 170.093 177.131 170.153 176.616 170.316C176.101 170.479 175.623 170.742 175.21 171.09C174.643 171.657 174.289 172.402 174.21 173.2L176.53 173.48C176.566 173.055 176.73 172.65 177 172.32C177.161 172.152 177.355 172.019 177.571 171.931C177.786 171.843 178.018 171.802 178.25 171.81C178.657 171.788 179.057 171.92 179.37 172.18C179.509 172.308 179.622 172.463 179.701 172.634C179.78 172.806 179.824 172.992 179.83 173.18C179.821 173.446 179.748 173.705 179.617 173.937C179.487 174.168 179.303 174.365 179.08 174.51C178.564 174.941 178.076 175.406 177.62 175.9C177.438 176.126 177.299 176.384 177.21 176.66C177.126 177.004 177.099 177.358 177.13 177.71V177.67Z" fill="white"/>
<path d="M180.004 203.82C179.026 203.805 178.089 203.424 177.378 202.752C176.667 202.08 176.234 201.166 176.164 200.19C176.132 199.722 176.198 199.253 176.356 198.811C176.515 198.37 176.763 197.966 177.085 197.625C177.407 197.284 177.796 197.013 178.228 196.83C178.66 196.647 179.125 196.555 179.594 196.56C180.571 196.575 181.507 196.957 182.216 197.629C182.925 198.301 183.357 199.215 183.424 200.19C183.456 200.657 183.391 201.126 183.233 201.567C183.075 202.008 182.828 202.411 182.507 202.752C182.185 203.093 181.797 203.363 181.367 203.547C180.936 203.731 180.472 203.824 180.004 203.82ZM179.634 197.44C179.28 197.438 178.929 197.509 178.603 197.649C178.277 197.788 177.983 197.993 177.74 198.251C177.497 198.509 177.31 198.815 177.19 199.148C177.07 199.482 177.021 199.837 177.044 200.19C177.105 200.927 177.436 201.614 177.973 202.122C178.51 202.629 179.215 202.921 179.954 202.94C180.308 202.942 180.66 202.872 180.985 202.732C181.311 202.592 181.605 202.387 181.848 202.129C182.091 201.871 182.278 201.566 182.398 201.232C182.518 200.899 182.567 200.544 182.544 200.19C182.482 199.449 182.147 198.757 181.604 198.249C181.061 197.741 180.348 197.453 179.604 197.44H179.634Z" fill="white"/>
<path d="M185.211 209.69C185.093 209.686 184.98 209.639 184.893 209.558C184.807 209.477 184.753 209.368 184.741 209.25C184.561 205.94 181.121 205.68 180.071 205.68C179.021 205.68 175.621 205.94 175.811 209.25C175.814 209.307 175.805 209.364 175.785 209.417C175.765 209.47 175.734 209.519 175.695 209.56C175.656 209.601 175.609 209.634 175.556 209.656C175.504 209.679 175.448 209.69 175.391 209.69C175.273 209.688 175.16 209.641 175.075 209.56C174.99 209.478 174.938 209.368 174.931 209.25C174.771 206.55 176.771 204.81 180.021 204.81C183.271 204.81 185.471 206.55 185.621 209.25C185.625 209.306 185.617 209.363 185.599 209.416C185.58 209.469 185.55 209.518 185.512 209.56C185.473 209.601 185.427 209.634 185.375 209.656C185.323 209.679 185.267 209.69 185.211 209.69Z" fill="white"/>
<path opacity="0.5" d="M173.509 94L83.8291 116.65C83.1487 116.838 82.5141 117.163 81.9651 117.607C81.416 118.05 80.9641 118.602 80.6376 119.228C80.3112 119.853 80.117 120.54 80.0674 121.244C80.0178 121.948 80.1137 122.655 80.3491 123.32L93.5791 165.92C93.9911 167.333 94.922 168.537 96.1851 169.292C97.4481 170.047 98.9499 170.296 100.389 169.99L190.069 147.33C190.749 147.144 191.383 146.819 191.932 146.377C192.481 145.934 192.932 145.383 193.258 144.757C193.584 144.132 193.777 143.446 193.825 142.743C193.874 142.04 193.776 141.334 193.539 140.67L180.309 98.06C179.897 96.6501 178.967 95.448 177.706 94.695C176.445 93.942 174.946 93.6937 173.509 94Z" fill="#F5B645"/>
<path d="M309.827 79.7001L310.567 82.5301C310.797 83.4501 310.997 84.3701 311.197 85.2901C311.617 87.1201 311.957 88.9601 312.297 90.8101C312.947 94.5201 313.517 98.2601 313.857 102.1C314.037 104.02 314.174 105.97 314.267 107.95C314.361 109.93 314.361 111.963 314.267 114.05C314.21 116.269 313.996 118.481 313.627 120.67C313.185 123.451 312.322 126.149 311.067 128.67L310.997 129C310.842 129.309 310.665 129.607 310.467 129.89C308.646 132.403 306.149 134.348 303.267 135.5C301.013 136.366 298.622 136.82 296.207 136.84C294.3 136.866 292.396 136.685 290.527 136.3C288.879 135.964 287.252 135.526 285.657 134.99C282.737 133.969 279.907 132.705 277.197 131.21C275.877 130.49 274.607 129.71 273.347 128.91L271.507 127.65L269.637 126.27C268.669 125.559 267.975 124.536 267.671 123.374C267.367 122.212 267.471 120.98 267.967 119.886C268.462 118.791 269.319 117.9 270.393 117.362C271.468 116.824 272.694 116.672 273.867 116.93L274.377 117.04L278.117 117.85C279.377 118.13 280.647 118.38 281.887 118.62C284.281 119.086 286.698 119.42 289.127 119.62C290.198 119.705 291.273 119.732 292.347 119.7C293.193 119.662 294.034 119.545 294.857 119.35C295.497 119.18 295.857 118.92 295.757 118.82C295.657 118.72 295.117 118.97 294.817 119.27L294.147 120.42C294.097 120.31 294.317 119.31 294.357 118.14C294.427 116.781 294.427 115.419 294.357 114.06C294.277 112.57 294.147 111.06 293.957 109.44C293.767 107.82 293.587 106.24 293.327 104.61C292.817 101.35 292.257 98.0301 291.597 94.7101L290.597 89.7101L289.597 84.8401L289.527 84.4801C289.008 81.8192 289.541 79.0607 291.015 76.7849C292.488 74.5091 294.787 72.8936 297.427 72.2782C300.067 71.6628 302.843 72.0956 305.171 73.4854C307.499 74.8753 309.197 77.1139 309.907 79.7301L309.827 79.7001Z" fill="#263238"/>
<path opacity="0.2" d="M309.827 79.7001L310.567 82.5301C310.797 83.4501 310.997 84.3701 311.197 85.2901C311.617 87.1201 311.957 88.9601 312.297 90.8101C312.947 94.5201 313.517 98.2601 313.857 102.1C314.037 104.02 314.174 105.97 314.267 107.95C314.361 109.93 314.361 111.963 314.267 114.05C314.21 116.269 313.996 118.481 313.627 120.67C313.185 123.451 312.322 126.149 311.067 128.67L310.997 129C310.842 129.309 310.665 129.607 310.467 129.89C308.646 132.403 306.149 134.348 303.267 135.5C301.013 136.366 298.622 136.82 296.207 136.84C294.3 136.866 292.396 136.685 290.527 136.3C288.879 135.964 287.252 135.526 285.657 134.99C282.737 133.969 279.907 132.705 277.197 131.21C275.877 130.49 274.607 129.71 273.347 128.91L271.507 127.65L269.637 126.27C268.669 125.559 267.975 124.536 267.671 123.374C267.367 122.212 267.471 120.98 267.967 119.886C268.462 118.791 269.319 117.9 270.393 117.362C271.468 116.824 272.694 116.672 273.867 116.93L274.377 117.04L278.117 117.85C279.377 118.13 280.647 118.38 281.887 118.62C284.281 119.086 286.698 119.42 289.127 119.62C290.198 119.705 291.273 119.732 292.347 119.7C293.193 119.662 294.034 119.545 294.857 119.35C295.497 119.18 295.857 118.92 295.757 118.82C295.657 118.72 295.117 118.97 294.817 119.27L294.147 120.42C294.097 120.31 294.317 119.31 294.357 118.14C294.427 116.781 294.427 115.419 294.357 114.06C294.277 112.57 294.147 111.06 293.957 109.44C293.767 107.82 293.587 106.24 293.327 104.61C292.817 101.35 292.257 98.0301 291.597 94.7101L290.597 89.7101L289.597 84.8401L289.527 84.4801C289.008 81.8192 289.541 79.0607 291.015 76.7849C292.488 74.5091 294.787 72.8936 297.427 72.2782C300.067 71.6628 302.843 72.0956 305.171 73.4854C307.499 74.8753 309.197 77.1139 309.907 79.7301L309.827 79.7001Z" fill="black"/>
<path d="M314.15 239.621C308.43 198.621 310.3 173.751 304.29 153.561L267.09 150.561C267.09 150.561 283.58 215.561 291.14 242.621C298.7 269.681 327.72 331.541 327.72 331.541L337.83 325.791C337.83 325.791 324.22 271.311 314.15 239.621Z" fill="#F5B645"/>
<path opacity="0.2" d="M283.811 180.871C286.341 186.721 291.281 224.291 291.261 243.051L291.141 242.631C288.481 233.121 284.721 218.911 280.961 204.501L283.811 180.871Z" fill="black"/>
<path d="M281.19 240.77C289.36 185.26 289.36 150.89 289.36 150.89L253 150.3C253 150.3 257.38 216.5 258.9 244.23C260.47 273.06 269.47 336.52 269.47 336.52H282.16C282.16 336.52 285 276.42 281.19 240.77Z" fill="#F5B645"/>
<path d="M285.139 46.6709C286.829 54.0009 288.139 63.4009 290.209 68.8109C286.529 72.2309 280.579 76.4609 272.649 76.3509C264.719 76.2409 266.159 70.8709 268.289 68.1009C273.979 65.2309 274.199 62.3309 272.809 59.7909L285.139 46.6709Z" fill="#FFC3BD"/>
<path d="M298.739 70.3505C298.739 70.3505 293.679 64.4005 291.679 63.4005C289.679 62.4005 274.549 64.4005 270.979 65.1205C267.409 65.8405 263.059 71.1205 263.059 71.1205L298.739 70.3505Z" fill="#F5B645"/>
<path d="M260.077 45.7605C260.237 46.4805 259.987 47.1405 259.517 47.2405C259.047 47.3405 258.517 46.8405 258.377 46.1205C258.237 45.4005 258.467 44.7405 258.937 44.6405C259.407 44.5405 259.917 45.0005 260.077 45.7605Z" fill="#263238"/>
<path d="M258.809 50.0008C256.959 50.0008 255.109 48.1008 254.519 45.4508C254.104 43.872 254.319 42.1938 255.119 40.7708C255.323 40.425 255.595 40.1238 255.918 39.8851C256.241 39.6463 256.609 39.4748 256.999 39.3808C258.999 38.9408 261.199 40.9508 261.849 43.8608C262.263 45.4428 262.048 47.1239 261.249 48.5508C261.045 48.8965 260.773 49.1977 260.45 49.4364C260.127 49.6752 259.759 49.8467 259.369 49.9408C259.185 49.9804 258.997 50.0006 258.809 50.0008ZM257.569 39.8508C257.159 39.8533 256.757 39.966 256.405 40.1771C256.053 40.3882 255.764 40.6899 255.569 41.0508C254.848 42.3559 254.658 43.8891 255.039 45.3308C255.629 47.9608 257.519 49.7908 259.249 49.4208C259.573 49.3434 259.877 49.2006 260.144 49.0011C260.411 48.8016 260.633 48.5496 260.799 48.2608C261.52 46.9556 261.71 45.4224 261.329 43.9808C260.789 41.6208 259.169 39.8908 257.569 39.8908V39.8508Z" fill="#263238"/>
<path d="M260.349 46.75C259.982 49.1239 259.289 51.4358 258.289 53.62C259.829 54.53 261.869 53.52 261.869 53.52L260.349 46.75Z" fill="#ED847E"/>
<path d="M257.6 41.6301C257.661 41.6643 257.73 41.6822 257.8 41.6822C257.87 41.6822 257.939 41.6643 258 41.6301C258.489 41.3972 259.026 41.2848 259.567 41.3022C260.108 41.3196 260.637 41.4663 261.11 41.7301C261.156 41.7617 261.209 41.7837 261.264 41.7948C261.319 41.8059 261.375 41.8059 261.43 41.7947C261.485 41.7835 261.538 41.7614 261.584 41.7297C261.63 41.698 261.67 41.6573 261.7 41.6101C261.732 41.563 261.754 41.5099 261.765 41.4541C261.777 41.3983 261.777 41.3409 261.765 41.285C261.754 41.2292 261.732 41.1762 261.7 41.129C261.668 41.0818 261.628 41.0414 261.58 41.0101C260.99 40.6657 260.325 40.4694 259.642 40.438C258.959 40.4067 258.279 40.5412 257.66 40.8301C257.608 40.8529 257.561 40.8857 257.522 40.9268C257.482 40.9678 257.452 41.0162 257.431 41.0692C257.411 41.1222 257.401 41.1788 257.402 41.2356C257.404 41.2924 257.417 41.3483 257.44 41.4001C257.462 41.4944 257.519 41.5766 257.6 41.6301Z" fill="#263238"/>
<path d="M283.877 38.4609C285.307 47.3809 286.607 52.5309 283.157 58.0109C277.977 66.2509 266.157 64.5709 262.087 56.2309C258.407 48.7309 256.677 35.4009 264.537 30.0409C266.278 28.8535 268.291 28.1269 270.389 27.9291C272.487 27.7312 274.601 28.0687 276.533 28.9098C278.465 29.7509 280.152 31.0682 281.436 32.7386C282.721 34.4089 283.56 36.3777 283.877 38.4609Z" fill="#FFC3BD"/>
<path d="M268.749 47.6005C266.117 47.5559 263.535 46.8693 261.229 45.6005C260.937 42.6405 261.034 39.655 261.519 36.7205C259.919 37.3405 253.809 38.9605 253.519 32.7705C256.099 34.9405 260.319 31.6105 258.659 30.5305C256.999 29.4505 252.869 28.3605 253.389 26.2005C255.499 28.3605 259.899 28.2005 260.869 26.9205C259.319 24.2905 257.249 25.2705 257.249 25.2705C257.249 25.2705 260.459 21.1405 266.799 24.4405C264.529 21.0405 269.329 19.2305 269.329 19.2305C269.329 19.2305 267.629 22.0705 270.409 22.3805C273.189 22.6905 283.779 21.0605 282.229 25.9205C286.359 24.4905 291.169 29.3005 289.459 35.9205C287.749 42.5405 288.589 55.9205 286.739 56.2905C276.889 58.0605 270.559 53.1205 268.749 47.6005Z" fill="#263238"/>
<path d="M267.55 46.2109L254.78 45.7009C254.709 45.6958 254.643 45.6641 254.594 45.6121C254.546 45.5602 254.519 45.4918 254.52 45.4209C254.525 45.3528 254.555 45.2892 254.605 45.2428C254.655 45.1964 254.721 45.1707 254.79 45.1709L267.56 45.6809C267.621 45.6929 267.676 45.7259 267.716 45.7742C267.756 45.8226 267.778 45.8833 267.778 45.9459C267.778 46.0085 267.756 46.0692 267.716 46.1176C267.676 46.1659 267.621 46.1989 267.56 46.2109H267.55Z" fill="#263238"/>
<path d="M279.891 26.4202C283.321 25.8202 283.891 20.7502 281.541 19.9902C287.321 20.4002 285.841 27.7602 279.891 26.4202Z" fill="#263238"/>
<path d="M271.776 46.0901C272.087 47.9906 271.665 49.9381 270.596 51.5401C269.186 53.5401 267.006 52.2901 266.156 49.8801C265.396 47.7201 265.216 44.0801 267.226 42.9901C269.236 41.9001 271.396 43.6501 271.776 46.0901Z" fill="#FFC3BD"/>
<path d="M298.23 69.3506C285.93 67.8406 268.48 67.9706 256.9 69.9906C254.036 70.5051 251.423 71.9538 249.469 74.1103C247.515 76.2668 246.33 79.0097 246.1 81.9106C244.66 99.5806 248.57 130.461 251.95 161.551C279.2 170.691 306.86 161.421 306.86 161.421C307.47 155.151 304.09 134.601 301.98 123.631C303.53 112.311 307.46 99.3406 309.67 84.2906C309.921 82.5555 309.823 80.7876 309.381 79.091C308.939 77.3944 308.162 75.8033 307.096 74.4113C306.03 73.0193 304.697 71.8545 303.174 70.9854C301.652 70.1163 299.97 69.5605 298.23 69.3506Z" fill="#263238"/>
<path opacity="0.2" d="M261.218 94.0908C259.358 104.731 253.468 117.411 248.078 125.801C247.338 118.451 246.718 111.451 246.328 104.991L261.218 94.0908Z" fill="black"/>
<path d="M99.8473 152.69L196.347 138.9C197.028 138.805 197.682 138.571 198.268 138.213C198.854 137.854 199.36 137.378 199.754 136.815C200.149 136.252 200.422 135.614 200.559 134.94C200.695 134.267 200.691 133.572 200.547 132.9L191.267 86.7702C190.968 85.3721 190.154 84.1376 188.987 83.3115C187.82 82.4854 186.385 82.128 184.967 82.3102L88.4672 96.1002C87.7865 96.1949 87.1326 96.4289 86.5464 96.7876C85.9602 97.1464 85.4542 97.6221 85.0601 98.1851C84.666 98.7482 84.3921 99.3864 84.2557 100.06C84.1193 100.734 84.1232 101.428 84.2672 102.1L93.5472 148.22C93.8423 149.621 94.6548 150.86 95.8225 151.688C96.9902 152.517 98.4274 152.874 99.8473 152.69Z" fill="white"/>
<path opacity="0.2" d="M99.8473 152.69L196.347 138.9C197.028 138.805 197.682 138.571 198.268 138.213C198.854 137.854 199.36 137.378 199.754 136.815C200.149 136.252 200.422 135.614 200.559 134.94C200.695 134.267 200.691 133.572 200.547 132.9L191.267 86.7702C190.968 85.3721 190.154 84.1376 188.987 83.3115C187.82 82.4854 186.385 82.128 184.967 82.3102L88.4672 96.1002C87.7865 96.1949 87.1326 96.4289 86.5464 96.7876C85.9602 97.1464 85.4542 97.6221 85.0601 98.1851C84.666 98.7482 84.3921 99.3864 84.2557 100.06C84.1193 100.734 84.1232 101.428 84.2672 102.1L93.5472 148.22C93.8423 149.621 94.6548 150.86 95.8225 151.688C96.9902 152.517 98.4274 152.874 99.8473 152.69Z" fill="#F5B645"/>
<path d="M179.167 102.241L101.717 113.301C100.531 113.455 99.3297 113.157 98.3531 112.466C97.3766 111.775 96.6961 110.741 96.4472 109.571C96.3246 109.01 96.3198 108.43 96.433 107.867C96.5463 107.304 96.775 106.771 97.1049 106.301C97.4348 105.831 97.8587 105.434 98.3496 105.137C98.8406 104.839 99.388 104.646 99.9572 104.571L177.417 93.5109C178.603 93.3538 179.804 93.6496 180.781 94.3391C181.757 95.0287 182.438 96.0614 182.687 97.2309C182.811 97.7933 182.817 98.3754 182.704 98.9401C182.591 99.5048 182.361 100.04 182.03 100.511C181.699 100.982 181.274 101.379 180.781 101.677C180.288 101.975 179.738 102.167 179.167 102.241ZM100.167 105.421C99.7109 105.481 99.272 105.635 98.8778 105.873C98.4836 106.111 98.1426 106.427 97.8761 106.802C97.6097 107.178 97.4234 107.604 97.3289 108.055C97.2345 108.505 97.2339 108.97 97.3272 109.421C97.53 110.365 98.0811 111.198 98.8706 111.754C99.6601 112.31 100.63 112.548 101.587 112.421L178.997 101.411C179.453 101.349 179.891 101.194 180.284 100.956C180.678 100.718 181.018 100.402 181.285 100.027C181.551 99.6517 181.737 99.2261 181.832 98.7761C181.927 98.3262 181.929 97.8615 181.837 97.4109C181.632 96.468 181.081 95.6364 180.292 95.0808C179.503 94.5252 178.534 94.2862 177.577 94.4109L100.167 105.421Z" fill="white"/>
<path d="M181.999 116.351L104.549 127.411C103.364 127.568 102.163 127.272 101.186 126.583C100.209 125.893 99.5282 124.86 99.2792 123.691C99.1567 123.13 99.1519 122.55 99.2651 121.987C99.3783 121.424 99.6071 120.891 99.937 120.421C100.267 119.951 100.691 119.554 101.182 119.257C101.673 118.959 102.22 118.766 102.789 118.691L180.249 107.621C181.436 107.466 182.637 107.765 183.613 108.456C184.59 109.147 185.27 110.181 185.519 111.351C185.642 111.913 185.646 112.494 185.532 113.057C185.419 113.621 185.189 114.154 184.858 114.624C184.527 115.094 184.102 115.491 183.61 115.788C183.118 116.085 182.569 116.277 181.999 116.351ZM102.999 119.531C102.543 119.591 102.104 119.745 101.71 119.983C101.316 120.221 100.975 120.537 100.708 120.912C100.442 121.288 100.255 121.714 100.161 122.164C100.067 122.615 100.066 123.08 100.159 123.531C100.364 124.474 100.916 125.305 101.705 125.861C102.494 126.417 103.462 126.656 104.419 126.531L181.879 115.461C182.335 115.399 182.773 115.244 183.166 115.006C183.56 114.768 183.9 114.452 184.167 114.077C184.433 113.702 184.619 113.276 184.714 112.826C184.809 112.376 184.811 111.911 184.719 111.461C184.516 110.517 183.965 109.684 183.176 109.128C182.386 108.572 181.416 108.334 180.459 108.461L102.999 119.531Z" fill="white"/>
<path d="M184.84 130.39L135.46 137.44C134.295 137.592 133.115 137.3 132.155 136.622C131.196 135.944 130.526 134.929 130.28 133.78C130.163 133.229 130.162 132.66 130.276 132.109C130.389 131.557 130.616 131.035 130.94 130.575C131.265 130.115 131.682 129.727 132.163 129.436C132.645 129.144 133.182 128.955 133.74 128.88L183.12 121.88C184.284 121.727 185.464 122.018 186.422 122.697C187.381 123.376 188.048 124.391 188.29 125.54C188.4 126.087 188.397 126.651 188.281 127.196C188.165 127.742 187.938 128.258 187.615 128.713C187.292 129.167 186.879 129.55 186.401 129.839C185.924 130.128 185.393 130.315 184.84 130.39ZM133.84 129.56C133.371 129.623 132.92 129.782 132.515 130.027C132.11 130.273 131.761 130.599 131.489 130.986C131.216 131.373 131.027 131.812 130.932 132.276C130.838 132.74 130.841 133.218 130.94 133.68C131.143 134.648 131.704 135.502 132.511 136.074C133.317 136.645 134.31 136.89 135.29 136.76L184.67 129.76C185.139 129.698 185.59 129.539 185.996 129.294C186.401 129.048 186.751 128.722 187.024 128.335C187.297 127.949 187.487 127.51 187.583 127.046C187.679 126.582 187.678 126.104 187.58 125.64C187.374 124.672 186.811 123.818 186.003 123.247C185.195 122.676 184.201 122.431 183.22 122.56L133.84 129.56Z" fill="white"/>
<path d="M191.906 105.14L194.606 104.14C195.107 103.945 195.647 103.873 196.182 103.93C196.716 103.988 197.229 104.173 197.676 104.47L201.916 107.27C202.751 107.819 203.442 108.559 203.932 109.428C204.423 110.298 204.698 111.272 204.736 112.27V113.53C200.376 115.53 194.166 114.53 194.166 114.53L192.366 114.44C191.996 114.431 191.63 114.349 191.292 114.198C190.953 114.047 190.647 113.83 190.392 113.561C190.138 113.291 189.939 112.974 189.807 112.627C189.676 112.28 189.614 111.911 189.626 111.54L189.766 107.97C189.807 107.341 190.031 106.737 190.412 106.234C190.792 105.731 191.312 105.35 191.906 105.14Z" fill="#FFC3BD"/>
<path d="M266.919 85.8705L265.769 88.5605C265.389 89.4305 264.989 90.2805 264.589 91.1305C263.799 92.8305 262.949 94.5005 262.089 96.1805C260.329 99.5105 258.499 102.821 256.419 106.071C255.386 107.697 254.306 109.324 253.179 110.951C252.019 112.561 250.789 114.171 249.449 115.781C248.052 117.503 246.535 119.123 244.909 120.631C242.852 122.573 240.512 124.191 237.969 125.431L237.559 125.631C237.295 125.757 237.021 125.861 236.739 125.941C232.902 126.936 228.892 127.066 224.999 126.321C221.858 125.754 218.782 124.869 215.819 123.681C213.067 122.571 210.394 121.275 207.819 119.801C206.549 119.081 205.319 118.311 204.109 117.521C202.899 116.731 201.759 115.901 200.499 114.931C199.553 114.202 198.882 113.173 198.597 112.013C198.313 110.853 198.43 109.63 198.931 108.546C199.432 107.461 200.287 106.579 201.355 106.044C202.422 105.509 203.641 105.353 204.809 105.601L205.209 105.681L208.909 106.481C210.159 106.771 211.419 107.021 212.659 107.271C215.149 107.761 217.589 108.191 219.959 108.471C221.139 108.611 222.299 108.741 223.419 108.811C224.539 108.881 225.609 108.871 226.599 108.811C228.061 108.84 229.51 108.54 230.839 107.931L229.599 108.441C229.599 108.321 230.419 107.661 231.159 106.761C232.044 105.72 232.875 104.636 233.649 103.511C234.489 102.291 235.329 100.991 236.149 99.6105C236.969 98.2305 237.809 96.8505 238.599 95.4105C240.189 92.5105 241.769 89.5405 243.279 86.5105L245.539 81.9405L247.719 77.4605L247.879 77.1405C249.143 74.8051 251.247 73.0371 253.765 72.1945C256.283 71.3518 259.027 71.4975 261.442 72.6019C263.857 73.7064 265.762 75.6872 266.771 78.1432C267.781 80.5993 267.819 83.3472 266.879 85.8305L266.919 85.8705Z" fill="#263238"/>
<path d="M30.728 244.299L29.608 243.859C35.318 229.339 29.768 204.86 23.878 178.99C17.388 150.39 10.668 120.819 19.478 103.479L20.538 104.02C11.928 121.02 18.598 150.329 25.048 178.729C30.998 204.799 36.568 229.429 30.728 244.299Z" fill="#F5B645"/>
<path d="M22.64 100.82C22.64 105.51 21.16 107.08 19.32 107.08C17.48 107.08 16 105.51 16 100.82C16 96.1296 19.32 90.0996 19.32 90.0996C19.32 90.0996 22.64 96.1296 22.64 100.82Z" fill="#F5B645"/>
<path d="M24.2401 126.999C21.0301 130.999 18.6901 131.309 17.1301 130.059C15.5701 128.809 15.3801 126.439 18.5901 122.459C21.8001 118.479 28.7601 115.609 28.7601 115.609C28.7601 115.609 27.4501 122.999 24.2401 126.999Z" fill="#F5B645"/>
<path d="M31.7197 166.28C27.9397 170.98 25.1797 171.36 23.3397 169.88C21.4997 168.4 21.2797 165.62 25.0697 160.88C28.8597 156.14 37.0697 152.81 37.0697 152.81C37.0697 152.81 35.5097 161.58 31.7197 166.28Z" fill="#F5B645"/>
<path d="M41.2695 216.86C37.1995 221.32 34.4195 221.52 32.6795 219.93C30.9395 218.34 30.8795 215.55 34.9495 211.1C39.0195 206.65 47.4095 203.78 47.4095 203.78C47.4095 203.78 45.3295 212.4 41.2695 216.86Z" fill="#F5B645"/>
<path d="M13.6903 141.54C17.8503 144.54 18.3003 146.84 17.1303 148.47C15.9603 150.1 13.6203 150.41 9.46031 147.47C5.30031 144.53 2.07031 137.7 2.07031 137.7C2.07031 137.7 9.53032 138.55 13.6903 141.54Z" fill="#F5B645"/>
<path d="M23.0013 188.649C28.6313 192.649 29.2313 195.829 27.6513 198.029C26.0713 200.229 22.9113 200.659 17.2812 196.619C11.6512 192.579 7.28125 183.399 7.28125 183.399C7.28125 183.399 17.3413 184.609 23.0013 188.649Z" fill="#F5B645"/>
<path d="M18.5301 238.05L26.7101 343.7C26.7427 344.118 26.9316 344.509 27.2392 344.794C27.5468 345.079 27.9505 345.238 28.3701 345.24H35.5101C35.9296 345.238 36.3333 345.079 36.6409 344.794C36.9485 344.509 37.1374 344.118 37.1701 343.7L45.3501 238.05C45.3763 237.714 45.3327 237.376 45.2218 237.057C45.111 236.739 44.9355 236.447 44.7062 236.2C44.477 235.953 44.199 235.756 43.8899 235.622C43.5807 235.487 43.2471 235.419 42.9101 235.42H21.0001C20.6609 235.416 20.3247 235.483 20.0127 235.616C19.7007 235.749 19.4197 235.945 19.1876 236.192C18.9554 236.439 18.777 236.732 18.6639 237.052C18.5507 237.372 18.5051 237.711 18.5301 238.05Z" fill="#263238"/>
</g>
<defs>
<clipPath id="clip0_5512_1707">
<rect width="320" height="260" fill="white"/>
</clipPath>
</defs>
</svg>
