<svg width="564" height="563" viewBox="0 0 564 563" fill="none" xmlns="http://www.w3.org/2000/svg">
<path fill-rule="evenodd" clip-rule="evenodd" d="M382.816 143.741L369.93 132.106C362.166 139.842 349.615 140.231 341.381 132.802C333.141 125.369 332.243 112.835 339.154 104.318L326.269 92.6849C318.507 100.439 305.943 100.833 297.702 93.399C289.456 85.9607 288.563 73.413 295.491 64.8953L282.608 53.264C275.429 60.4528 264.128 61.3345 255.946 55.5363L203.54 113.578L195.705 122.322L194.467 124.029L192.857 125.47L183.543 135.788C174.239 148.244 169.097 163.315 168.846 178.86L168.842 179.76C168.744 198.596 175.834 216.76 188.666 230.549L198.416 239.378L265.834 300.209L282.675 281.562L383.142 170.233C376.73 162.705 376.501 151.543 382.816 143.741Z" fill="#F5B645"/>
<path fill-rule="evenodd" clip-rule="evenodd" d="M378.362 401.74C378.185 401.922 378.011 402.107 377.84 402.297C370.888 410.003 371.246 421.745 378.474 429.018L371.736 436.485C363.76 430.042 352.044 430.892 345.092 438.598C338.142 446.302 338.498 458.041 345.723 465.314L338.984 472.783C331.008 466.343 319.295 467.194 312.345 474.899C305.396 482.602 305.751 494.338 312.972 501.611L306.233 509.08C299.082 503.31 288.929 503.398 281.897 509.03L198.847 434.143L190.635 426.673L196.42 420.26C199.13 417.256 198.892 412.624 195.888 409.914C192.884 407.204 188.252 407.443 185.542 410.447L180.852 415.645C178.009 411.504 175.591 407.076 173.641 402.429C169.816 393.277 167.87 383.449 167.917 373.53L168.844 179.921C168.774 198.672 175.828 216.752 188.581 230.504C191.574 233.719 194.836 236.672 198.33 239.333L265.749 300.164L272.482 306.234L276.38 309.752L272.542 314.006C269.832 317.01 270.07 321.642 273.074 324.352C276.078 327.062 280.71 326.824 283.42 323.82L287.256 319.568L306.06 336.539L378.362 401.74ZM248.462 351.635C245.458 348.925 245.219 344.293 247.929 341.289L259.379 328.597C262.089 325.593 266.721 325.355 269.725 328.065C272.729 330.775 272.967 335.407 270.257 338.411L258.808 351.103C256.098 354.107 251.466 354.345 248.462 351.635ZM223.317 368.572C220.607 371.576 220.845 376.209 223.849 378.919C226.853 381.629 231.486 381.39 234.196 378.386L245.645 365.694C248.355 362.69 248.117 358.058 245.113 355.348C242.109 352.638 237.476 352.876 234.766 355.88L223.317 368.572ZM199.237 406.202C196.233 403.492 195.995 398.859 198.705 395.855L210.154 383.164C212.864 380.16 217.496 379.921 220.5 382.631C223.504 385.341 223.743 389.973 221.033 392.977L209.583 405.669C206.873 408.673 202.241 408.912 199.237 406.202Z" fill="#056348"/>
</svg>
