<svg width="48" height="48" viewBox="0 0 48 48" fill="none" xmlns="http://www.w3.org/2000/svg">
<path d="M32 25.5H16C15.18 25.5 14.5 24.82 14.5 24C14.5 23.18 15.18 22.5 16 22.5H32C32.82 22.5 33.5 23.18 33.5 24C33.5 24.82 32.82 25.5 32 25.5Z" fill="#101828"/>
<path d="M24 33.5C23.18 33.5 22.5 32.82 22.5 32V16C22.5 15.18 23.18 14.5 24 14.5C24.82 14.5 25.5 15.18 25.5 16V32C25.5 32.82 24.82 33.5 24 33.5Z" fill="#101828"/>
<path d="M30 45.5H18C7.14 45.5 2.5 40.86 2.5 30V18C2.5 7.14 7.14 2.5 18 2.5H30C40.86 2.5 45.5 7.14 45.5 18V30C45.5 40.86 40.86 45.5 30 45.5ZM18 5.5C8.78 5.5 5.5 8.78 5.5 18V30C5.5 39.22 8.78 42.5 18 42.5H30C39.22 42.5 42.5 39.22 42.5 30V18C42.5 8.78 39.22 5.5 30 5.5H18Z" fill="#101828"/>
</svg>
