<svg width="24" height="24" viewBox="0 0 24 24" fill="none" xmlns="http://www.w3.org/2000/svg">
<path d="M11 2H9C4 2 2 4 2 9V15C2 20 4 22 9 22H15C20 22 22 20 22 15V13" stroke="#14142A" stroke-width="1.5" stroke-linecap="round" stroke-linejoin="round"/>
<path d="M16.0379 3.02025L8.15793 10.9003C7.85793 11.2003 7.55793 11.7903 7.49793 12.2203L7.06793 15.2303C6.90793 16.3203 7.67793 17.0803 8.76793 16.9303L11.7779 16.5003C12.1979 16.4403 12.7879 16.1403 13.0979 15.8403L20.9779 7.96025C22.3379 6.60025 22.9779 5.02025 20.9779 3.02025C18.9779 1.02025 17.3979 1.66025 16.0379 3.02025Z" stroke="#14142A" stroke-width="1.5" stroke-miterlimit="10" stroke-linecap="round" stroke-linejoin="round"/>
<path d="M14.9062 4.15039C15.5763 6.54039 17.4463 8.41039 19.8463 9.09039" stroke="#14142A" stroke-width="1.5" stroke-miterlimit="10" stroke-linecap="round" stroke-linejoin="round"/>
</svg>
