<svg width="22" height="25" viewBox="0 0 22 25" fill="none" xmlns="http://www.w3.org/2000/svg">
<path d="M0.0958305 1.63281C0.0395254 1.83344 0 2.04869 0 2.29544V22.6099C0 22.8533 0.0380339 23.0674 0.0932203 23.2654L11.4206 12.4636L0.0958305 1.63281Z" fill="#48A0DC"/>
<path d="M2.61582 0.844222C2.08856 0.520597 1.56876 0.439597 1.12988 0.551347L12.5046 11.4301L15.8412 8.24897L2.61582 0.844222Z" fill="#88C057"/>
<path d="M20.7172 10.9786L17.1867 9.00195L13.5713 12.4497L17.2546 15.9732L20.69 14.0746C22.3653 13.1135 21.7534 11.5647 20.7172 10.9786Z" fill="#FFCC66"/>
<path d="M12.4866 13.4834L1.09766 24.3426C1.54325 24.4683 2.07498 24.3936 2.61566 24.0618L15.8824 16.7309L12.4866 13.4834Z" fill="#ED7161"/>
</svg>
