<svg width="20" height="20" viewBox="0 0 20 20" fill="none" xmlns="http://www.w3.org/2000/svg">
<path d="M6.72746 10.161L3.50996 6.94349C2.24329 8.32432 1.76329 9.70766 1.75496 9.73599L1.66663 9.99932L1.75413 10.2627C1.77246 10.3185 3.68413 15.8327 10.045 15.8327C10.8191 15.8327 11.5241 15.7477 12.1716 15.6052L9.88329 13.3168C9.05936 13.2764 8.27992 12.931 7.69661 12.3477C7.1133 11.7644 6.76785 10.9849 6.72746 10.161V10.161ZM10.045 4.16599C8.49913 4.16599 7.23246 4.50266 6.17663 4.99766L3.08913 1.91016L1.91079 3.08849L16.9108 18.0885L18.0891 16.9102L15.3408 14.1618C17.5391 12.5343 18.3233 10.2977 18.335 10.2627L18.4225 9.99932L18.335 9.73599C18.3166 9.68016 16.4058 4.16599 10.045 4.16599ZM11.6333 10.4543C11.7891 9.89015 11.6566 9.25516 11.2233 8.82099C10.79 8.38682 10.1541 8.25516 9.58996 8.41099L8.33329 7.15432C8.84826 6.83764 9.44041 6.6687 10.045 6.66599C11.8833 6.66599 13.3783 8.16099 13.3783 9.99932C13.3758 10.6038 13.2065 11.1958 12.8891 11.7102L11.6333 10.4543V10.4543Z" fill="#CECECE"/>
</svg>
