<svg width="15" height="15" viewBox="0 0 15 15" fill="none" xmlns="http://www.w3.org/2000/svg">
<path fill-rule="evenodd" clip-rule="evenodd" d="M3.7857 14.0002H1V5.64307H3.7857V14.0002V14.0002Z" fill="white"/>
<path fill-rule="evenodd" clip-rule="evenodd" d="M2.38457 3.78576H2.36874C1.53743 3.78576 1 3.16642 1 2.3924C1 1.60201 1.5538 1 2.40089 1C3.24798 1 3.76963 1.60201 3.7857 2.3924C3.7857 3.16642 3.24798 3.78576 2.38457 3.78576V3.78576Z" fill="white"/>
<path fill-rule="evenodd" clip-rule="evenodd" d="M14.0015 14H11.2642V9.63159C11.2642 8.53435 10.868 7.78563 9.87707 7.78563C9.12079 7.78563 8.67032 8.29038 8.47247 8.7779C8.40009 8.95261 8.38233 9.19605 8.38233 9.44008V14.0002H5.64453C5.64453 14.0002 5.68061 6.60119 5.64453 5.83502H8.38233V6.99154C8.74565 6.43558 9.39637 5.64307 10.8498 5.64307C12.6512 5.64307 14.0016 6.81032 14.0016 9.3183L14.0015 14V14Z" fill="white"/>
</svg>
