<svg width="39" height="38" viewBox="0 0 39 38" fill="none" xmlns="http://www.w3.org/2000/svg">
<rect opacity="0.25" x="1.20703" y="0.817383" width="36.3646" height="36.3646" rx="18.1823" stroke="white" stroke-width="1.5"/>
<path fill-rule="evenodd" clip-rule="evenodd" d="M15.9913 25.3102H13.0786V16.5723H15.9913V25.3102Z" fill="white"/>
<path fill-rule="evenodd" clip-rule="evenodd" d="M14.5263 14.6305H14.5097C13.6405 14.6305 13.0786 13.9829 13.0786 13.1736C13.0786 12.3472 13.6576 11.7178 14.5433 11.7178C15.429 11.7178 15.9745 12.3472 15.9913 13.1736C15.9913 13.9829 15.429 14.6305 14.5263 14.6305Z" fill="white"/>
<path fill-rule="evenodd" clip-rule="evenodd" d="M26.671 25.31H23.8089V20.7426C23.8089 19.5953 23.3947 18.8125 22.3585 18.8125C21.5678 18.8125 21.0968 19.3402 20.8899 19.85C20.8142 20.0326 20.7957 20.2872 20.7957 20.5423V25.3102H17.9331C17.9331 25.3102 17.9708 17.5741 17.9331 16.773H20.7957V17.9822C21.1756 17.4009 21.8559 16.5723 23.3756 16.5723C25.2591 16.5723 26.6711 17.7927 26.6711 20.415L26.671 25.31Z" fill="white"/>
</svg>
