<svg width="21" height="20" viewBox="0 0 21 20" fill="none" xmlns="http://www.w3.org/2000/svg">
<path d="M10.5165 2.4248C7.75816 2.4248 5.5165 4.66647 5.5165 7.4248V9.83314C5.5165 10.3415 5.29983 11.1165 5.0415 11.5498L4.08316 13.1415C3.4915 14.1248 3.89983 15.2165 4.98316 15.5831C8.57483 16.7831 12.4498 16.7831 16.0415 15.5831C17.0498 15.2498 17.4915 14.0581 16.9415 13.1415L15.9832 11.5498C15.7332 11.1165 15.5165 10.3415 15.5165 9.83314V7.4248C15.5165 4.6748 13.2665 2.4248 10.5165 2.4248Z" stroke="#056348" stroke-width="1.5" stroke-miterlimit="10" stroke-linecap="round"/>
<path d="M12.0584 2.66621C11.8001 2.59121 11.5334 2.53288 11.2584 2.49954C10.4584 2.39954 9.69176 2.45788 8.9751 2.66621C9.21676 2.04954 9.81676 1.61621 10.5168 1.61621C11.2168 1.61621 11.8168 2.04954 12.0584 2.66621Z" stroke="#056348" stroke-width="1.5" stroke-miterlimit="10" stroke-linecap="round" stroke-linejoin="round"/>
<path d="M13.0161 15.8838C13.0161 17.2588 11.8911 18.3838 10.5161 18.3838C9.83278 18.3838 9.19945 18.1005 8.74945 17.6505C8.29945 17.2005 8.01611 16.5671 8.01611 15.8838" stroke="#056348" stroke-width="1.5" stroke-miterlimit="10"/>
</svg>
