<svg width="29" height="28" viewBox="0 0 29 28" fill="none" xmlns="http://www.w3.org/2000/svg">
<path d="M14.6395 14.9102C14.5579 14.8986 14.4529 14.8986 14.3595 14.9102C12.3062 14.8402 10.6729 13.1602 10.6729 11.0952C10.6729 8.98355 12.3762 7.26855 14.4995 7.26855C16.6112 7.26855 18.3262 8.98355 18.3262 11.0952C18.3145 13.1602 16.6929 14.8402 14.6395 14.9102Z" stroke="#056348" stroke-width="1.5" stroke-linecap="round" stroke-linejoin="round"/>
<path d="M22.3634 22.6103C20.2867 24.512 17.5334 25.667 14.5001 25.667C11.4667 25.667 8.71339 24.512 6.63672 22.6103C6.75339 21.5136 7.45339 20.4403 8.70172 19.6003C11.8984 17.477 17.1251 17.477 20.2984 19.6003C21.5467 20.4403 22.2467 21.5136 22.3634 22.6103Z" stroke="#056348" stroke-width="1.5" stroke-linecap="round" stroke-linejoin="round"/>
<path d="M14.5002 25.6663C20.9435 25.6663 26.1668 20.443 26.1668 13.9997C26.1668 7.55635 20.9435 2.33301 14.5002 2.33301C8.05684 2.33301 2.8335 7.55635 2.8335 13.9997C2.8335 20.443 8.05684 25.6663 14.5002 25.6663Z" stroke="#056348" stroke-width="1.5" stroke-linecap="round" stroke-linejoin="round"/>
</svg>
