<svg width="17" height="16" viewBox="0 0 17 16" fill="none" xmlns="http://www.w3.org/2000/svg">
<path d="M13.8335 7.33301C13.8335 10.6463 11.1468 13.333 7.8335 13.333C4.52016 13.333 1.8335 10.6463 1.8335 7.33301C1.8335 4.01967 4.52016 1.33301 7.8335 1.33301" stroke="#5A5E66" stroke-width="1.5" stroke-linecap="round" stroke-linejoin="round"/>
<path d="M9.50011 4.0864C9.26677 3.35306 9.54011 2.43973 10.3134 2.19306C10.7201 2.05973 11.2201 2.17306 11.5068 2.5664C11.7734 2.15973 12.2934 2.0664 12.6934 2.19306C13.4668 2.43973 13.7401 3.35306 13.5068 4.0864C13.1401 5.25306 11.8601 5.85973 11.5068 5.85973C11.1468 5.85973 9.88011 5.2664 9.50011 4.0864Z" stroke="#5A5E66" stroke-width="1.5" stroke-linecap="round" stroke-linejoin="round"/>
<path d="M13.1201 13.7929C13.4734 14.8595 14.2801 14.9662 14.9001 14.0329C15.4668 13.1795 15.0934 12.4795 14.0668 12.4795C13.3068 12.4729 12.8801 13.0662 13.1201 13.7929Z" stroke="#5A5E66" stroke-width="1.5" stroke-linecap="round" stroke-linejoin="round"/>
</svg>
