<svg width="39" height="38" viewBox="0 0 39 38" fill="none" xmlns="http://www.w3.org/2000/svg">
<rect opacity="0.25" x="1.66406" y="0.817383" width="36.3647" height="36.3646" rx="18.1823" stroke="white" stroke-width="1.5"/>
<path fill-rule="evenodd" clip-rule="evenodd" d="M19.6641 16.501L19.6915 16.9629L19.2355 16.9064C17.5757 16.6895 16.1257 15.9542 14.8945 14.7192L14.2926 14.1065L14.1376 14.559C13.8092 15.5677 14.019 16.633 14.703 17.3494C15.0678 17.7454 14.9857 17.8019 14.3564 17.5663C14.1376 17.4908 13.946 17.4343 13.9278 17.4626C13.864 17.5286 14.0828 18.3864 14.2561 18.7258C14.4932 19.1972 14.9766 19.6591 15.5055 19.9325L15.9524 20.1493L15.4234 20.1588C14.9127 20.1588 14.8945 20.1682 14.9492 20.3662C15.1316 20.9789 15.8521 21.6294 16.6546 21.9122L17.22 22.1102L16.7276 22.4119C15.998 22.8455 15.1407 23.0906 14.2835 23.1095C13.8731 23.1189 13.5356 23.1566 13.5356 23.1849C13.5356 23.2792 14.6483 23.8071 15.2958 24.0145C17.2383 24.6273 19.5456 24.3633 21.2783 23.3169C22.5095 22.5721 23.7407 21.092 24.3152 19.6591C24.6253 18.8955 24.9354 17.5003 24.9354 16.8309C24.9354 16.3973 24.9627 16.3407 25.4734 15.8222C25.7744 15.5206 26.0571 15.1906 26.1118 15.0963C26.203 14.9172 26.1939 14.9172 25.7288 15.0775C24.9536 15.3603 24.8442 15.3226 25.2272 14.8984C25.5099 14.5967 25.8474 14.0499 25.8474 13.8896C25.8474 13.8614 25.7106 13.9085 25.5555 13.9933C25.3914 14.0876 25.0266 14.229 24.753 14.3139L24.2605 14.4741L23.8136 14.163C23.5674 13.9933 23.2209 13.8048 23.0385 13.7482C22.5734 13.6163 21.862 13.6351 21.4425 13.7859C20.3025 14.2102 19.5821 15.3037 19.6641 16.501Z" fill="white"/>
</svg>
