<svg width="16" height="20" viewBox="0 0 16 20" fill="none" xmlns="http://www.w3.org/2000/svg">
<path d="M8.13216 9.05866C8.04883 9.05033 7.94883 9.05033 7.85716 9.05866C5.87383 8.99199 4.29883 7.36699 4.29883 5.36699C4.29883 3.32533 5.94883 1.66699 7.99883 1.66699C10.0405 1.66699 11.6988 3.32533 11.6988 5.36699C11.6905 7.36699 10.1155 8.99199 8.13216 9.05866Z" stroke="#292D32" stroke-width="1.5" stroke-linecap="round" stroke-linejoin="round"/>
<path d="M3.96563 12.133C1.94896 13.483 1.94896 15.683 3.96563 17.0247C6.25729 18.558 10.0156 18.558 12.3073 17.0247C14.324 15.6747 14.324 13.4747 12.3073 12.133C10.024 10.608 6.26562 10.608 3.96563 12.133Z" stroke="#292D32" stroke-width="1.5" stroke-linecap="round" stroke-linejoin="round"/>
</svg>
